<svg xmlns="http://www.w3.org/2000/svg" viewBox="0 0 500 500"><g id="freepik--Floor--inject-52"><path d="M36.26,475c136.94-.62,290.54-.62,427.48,0-136.94.61-290.54.61-427.48,0Z" style="fill:#263238"></path></g><g id="freepik--character-2--inject-52"><path d="M221.69,366.48c-2.65-.34-67.88-32-69.61-34.82-.65-1.05,3.41-10.82,8.65-22.48,1.13-2.52,2.32-5.11,3.53-7.74,7.89-17.07,16.65-35,16.65-35l43.7,21.07-17.85,34.42-3.92,7.56S222.39,352.8,224,356.05,224.34,366.83,221.69,366.48Z" style="fill:#f7a9a0"></path><path d="M221.69,366.48c-2.65-.34-67.88-32-69.61-34.82-.79-1.28,5.37-15.43,12.18-30.22l42.5,20.49-3.92,7.56S222.39,352.8,224,356.05,224.34,366.83,221.69,366.48Z" style="fill:#fff"></path><path d="M221.69,366.48c-2.65-.34-67.88-32-69.61-34.82-.65-1.05,3.41-10.82,8.65-22.48l42.11,20.31S222.39,352.8,224,356.05,224.34,366.83,221.69,366.48Z" style="fill:#E16A73"></path><path d="M222,363.42c-10.8-5.58-54.91-27.07-66-31.77-.09,0-.12,0,0,.07,10.58,5.77,54.86,26.9,66,31.88C222.17,363.7,222.25,363.54,222,363.42Z" style="fill:#263238"></path><path d="M220.9,351.66a9.82,9.82,0,0,0-7.84-.51,9.46,9.46,0,0,0-5.28,4.66c0,.06.09.12.13.06a11.29,11.29,0,0,1,12.92-4.07A.08.08,0,0,0,220.9,351.66Z" style="fill:#263238"></path><path d="M206.56,332.64c-4.35-2.19-10.17-3.11-14.63-.85-.18.09-.05.33.11.33a67.53,67.53,0,0,1,14.33,1.09A.3.3,0,0,0,206.56,332.64Z" style="fill:#263238"></path><path d="M209.3,335.6c-4.35-2.19-10.18-3.11-14.63-.85-.18.09,0,.33.11.33a67.53,67.53,0,0,1,14.33,1.09A.3.3,0,0,0,209.3,335.6Z" style="fill:#263238"></path><path d="M212,338.56c-4.34-2.19-10.17-3.11-14.63-.85-.17.08,0,.33.12.32a67.54,67.54,0,0,1,14.33,1.1A.3.3,0,0,0,212,338.56Z" style="fill:#263238"></path><path d="M214.77,341.51c-4.34-2.18-10.17-3.1-14.63-.84-.17.08,0,.33.12.32a67.54,67.54,0,0,1,14.33,1.1A.31.31,0,0,0,214.77,341.51Z" style="fill:#263238"></path><path d="M193.67,227.73c-.52,12.47-33.14,78.72-33.14,78.72l46.15,20.94s38.53-73.43,35.57-101c-2.52-23.43-44.34-51.46-70.49-79.44l-39.17-.28c14.38,31.1,57.8,68.62,61,79.56a5,5,0,0,1,.12,1.53Z" style="fill:#263238"></path><path d="M206.37,318.34c-7.57-3.68-5.35-2.72-13-6.32-3.73-1.76-22.42-10.65-26.16-11.72a.09.09,0,0,0-.07.15c3.24,2.16,22.12,10.65,25.87,12.34,7.67,3.46,5.51,2.39,13.21,5.76A.12.12,0,1,0,206.37,318.34Z" style="fill:#37474f"></path><path d="M142.2,153.23a402.66,402.66,0,0,0,38.24,50.11c3.44,3.81,7,7.52,10.53,11.23,3,3.14,6,6.62,6.77,11.06.8,4.94-1.17,9.84-2.74,14.43-1.72,5.05-3.46,10.11-5.3,15.12-2,5.41-4.07,10.78-6.42,16.05-1.2,2.69-8.48,15.9-9.81,18.53-.66,1.31-1.35,2.62-2.05,3.91-.35.65-2.82,5.12-3.18,5.77-.12.21-.43.47-.13-.08.67-1.22,3.44-6.27,4.07-7.51,2.49-4.9,10.72-20.48,12.79-25.56s4-10.38,5.89-15.63,3.73-10.38,5.3-15.64a22,22,0,0,0,1.18-8.35,15,15,0,0,0-3.1-7.48c-3.07-4.16-7.08-7.7-10.58-11.5q-10.87-11.83-20.72-24.54a352.1,352.1,0,0,1-20.87-29.85C142,153.22,142.15,153.15,142.2,153.23Z" style="fill:#37474f"></path><path d="M192.7,425.65c-2.56.76-75-1.68-77.75-3.52-1-.69-1.29-11.27-1.24-24.06,0-2.76,0-5.61.08-8.51.27-18.8,1-38.74,1-38.74l48.49,1.49L161,391l-.5,8.5s27.33,13.35,30.08,15.69S195.26,424.89,192.7,425.65Z" style="fill:#f7a9a0"></path><path d="M192.7,425.65c-2.56.76-75-1.68-77.75-3.52-1.25-.85-1.37-16.29-1.16-32.57L161,391l-.5,8.5s27.33,13.35,30.08,15.69S195.26,424.89,192.7,425.65Z" style="fill:#fff"></path><path d="M192.7,425.65c-2.56.76-75-1.68-77.75-3.52-1-.69-1.29-11.27-1.24-24.06l46.74,1.44s27.33,13.35,30.08,15.69S195.26,424.89,192.7,425.65Z" style="fill:#E16A73"></path><path d="M191.76,422.72c-12.14-.71-61.17-2.42-73.23-2.2-.1,0-.1.07,0,.08,12,1,61.06,2.27,73.22,2.32C192,422.92,192,422.73,191.76,422.72Z" style="fill:#263238"></path><path d="M186,412.43a9.77,9.77,0,0,0-7.36,2.72,9.47,9.47,0,0,0-2.94,6.4c0,.07.13.08.15,0a11.28,11.28,0,0,1,10.15-9A.08.08,0,1,0,186,412.43Z" style="fill:#263238"></path><path d="M165.12,400.88c-4.86-.23-10.56,1.29-13.72,5.17-.12.15.1.32.24.25a67.58,67.58,0,0,1,13.54-4.82A.3.3,0,0,0,165.12,400.88Z" style="fill:#263238"></path><path d="M168.82,402.47c-4.86-.23-10.55,1.29-13.71,5.17-.12.15.09.32.24.25a67.36,67.36,0,0,1,13.54-4.82A.31.31,0,0,0,168.82,402.47Z" style="fill:#263238"></path><path d="M172.53,404.06c-4.86-.23-10.56,1.29-13.72,5.17-.12.15.1.32.24.25a67.58,67.58,0,0,1,13.54-4.82A.3.3,0,0,0,172.53,404.06Z" style="fill:#263238"></path><path d="M176.23,405.65c-4.86-.23-10.55,1.29-13.71,5.17-.12.15.09.32.24.25a67.36,67.36,0,0,1,13.54-4.82A.31.31,0,0,0,176.23,405.65Z" style="fill:#263238"></path><path d="M165.16,398.73l-55.35-1.1s14.63-198.27,10.72-205.44c-6-11-10.07-25.86-1.53-45.77l42.84.32s-2.42,21.29-2.22,22.17C172.35,226.47,165.16,398.73,165.16,398.73Z" style="fill:#263238"></path><path d="M162.64,389.09c-11-.9-45.43-1.4-49.09-.92a.09.09,0,0,0,0,.17c3.63.72,21.74,1.25,49.09,1A.12.12,0,0,0,162.64,389.09Z" style="fill:#37474f"></path><path d="M162.6,149.52c-.47,5.42-.32,14.68-3.46,14.8s-2.51-11.2-2.57-13.8c-.06-2.37-.88-2.05-1,.73-.29,7.55-.15,14.22,3.87,13.94s4.06-12,4-14.66C163.4,149.15,162.75,147.81,162.6,149.52Z" style="fill:#37474f"></path><path d="M159.34,164.68a23.6,23.6,0,0,0,.08,5.72c.05.15.66,0,.72-.09.38-.78.11-4.5.22-5.49A.52.52,0,0,0,159.34,164.68Z" style="fill:#37474f"></path><path d="M160.62,171.37c1.31,4.75,2.61,13.84,2.27,16.23,0,.21-.36.28-.39.06-.41-2.55-2.22-14.8-2.4-16.08S160.26,170,160.62,171.37Z" style="fill:#37474f"></path><path d="M152.35,175.05a15.52,15.52,0,0,1,2-1.68c.7-.55,1.41-1.08,2.14-1.59,1.5-1,3-2,4.61-2.9s3.11-1.72,4.7-2.51,3.44-1.45,5.11-2.27c.1,0,.18.09.09.14-1.59.86-3.06,1.95-4.6,2.89s-3.07,1.93-4.62,2.88-3,1.87-4.53,2.79c-.79.48-1.6.94-2.4,1.41a20.12,20.12,0,0,1-2.28,1.24C152.36,175.55,152.2,175.21,152.35,175.05Z" style="fill:#37474f"></path><path d="M119.74,349.88q1.13-11.49,2.09-23,1.92-23,3.13-46.1c.8-15.38,1.38-23.1,1.72-38.5q.25-11.55.33-23.1c.06-7.65.19-17.85-.16-25.49-.17-3.88-7-6.92-8.29-18.23a43,43,0,0,1,1.64-19.19,41.78,41.78,0,0,1,1.74-4.42c0-.1.19,0,.15.09a42.13,42.13,0,0,0-3.46,20.13,34.12,34.12,0,0,0,2,10.16c1.8,4.56,6.29,8.3,6.51,10.72.33,3.62.36,6.75.38,10.37,0,3.78,0,7.55,0,11.33q0,11.55-.24,23.1-.42,23-1.54,46c-.76,15.31-1.75,22.93-3,38.21s-2.79,42.9-4.5,58.13c-.2,1.75-.42,3.49-.69,5.22,0,.19-.35.15-.33,0C117.87,377.55,119,357.53,119.74,349.88Z" style="fill:#37474f"></path><path d="M135.14,102.07a2.35,2.35,0,0,0,1.24,2.11,21,21,0,0,0,2.06,1.06,67.93,67.93,0,0,1,.1-7.14c.12-2.74.43-5.42.8-8.13,0,0,.08,0,.07,0-.17,2.75-.24,5.51-.34,8.26-.08,2.4,0,4.84-.07,7.24.73.3,1.48.56,2.23.8,0-.84-.06-1.68-.07-2.52,0-2.53.14-5,.23-7.56a0,0,0,0,1,.09,0c-.06,2.46.11,5,.19,7.4,0,1,.06,1.9.11,2.85.51.15,1,.29,1.54.42.33.08.67.17,1,.24,0-1.66.08-3.33.11-5,.05-2.63.28-5.24.37-7.87a.07.07,0,0,1,.14,0c-.08,2.61,0,5.24,0,7.86,0,1.68,0,3.41,0,5.11a42.38,42.38,0,0,0,13.85.38,62.83,62.83,0,0,0,7.91-1.56c.63-.16,2.23-.63,3.81-1.11,0-.79,0-1.58,0-2.35,0-1.75.06-3.51,0-5.26a0,0,0,1,1,.07,0c.13,1.75.37,3.49.45,5.25,0,.7.08,1.43.1,2.17l1.59-.5c-.26-3.31-.1-6.67-.15-10,0-.08.1-.08.11,0,.2,3.23.61,6.5.64,9.75a5.11,5.11,0,0,0,1-.42c.78-.61-.28-40-1.75-45.55-1-3.85-2.58-8.54-10.18-10.74-9.87-2.84-20.93,1.4-23.34,13.59-1.31,6.65-3.42,31-3.75,36.64C135.31,99.06,135.14,100.58,135.14,102.07Z" style="fill:#263238"></path><path d="M157.77,103.07C169,122.43,182.86,143.13,192,144.63c7.11,1.18,24.68-1.66,42.22-9.19,3.34-1.43-11.49-25.87-14-25.21-6.56,1.75-25.3,8-26.28,7.21-1.29-1-16.41-14.58-26.85-23.16C153.07,82.72,152,93.06,157.77,103.07Z" style="fill:#f7a9a0"></path><path d="M229.8,137.3c3.06-.43,16.9-3.63,20.55-5.38s13.79-7.56,12.73-10.49-4.16-1.47-4.16-1.47,3.89-3.13,2.56-6-6.09-.42-6.09-.42,3.77-3.51,2.23-6.26-5.9.49-5.9.49,3.59-3,1.37-4.78c-2.67-2.09-8.66,4.27-12.83,5.91-.95.37-19.76,6.14-19.76,6.14Z" style="fill:#f7a9a0"></path><path d="M252.1,107.52c-4.42,4.67-7.16,6-13.29,7.51-.12,0-.1.22,0,.2,6.14-1,9.81-2.1,13.49-7.51C252.51,107.46,252.31,107.3,252.1,107.52Z" style="fill:#263238"></path><path d="M255.74,113.18c-5,4.44-8,5.86-14.27,8-.09,0-.05.18.05.16,6.35-1.55,10-2.74,14.4-7.84C256.12,113.24,256,113,255.74,113.18Z" style="fill:#263238"></path><path d="M258.6,120.06c-5.16,4-8.34,5.64-14.72,6.91a.12.12,0,1,0,0,.23c6.62-.65,10.6-2.73,14.78-7C259,119.94,258.92,119.81,258.6,120.06Z" style="fill:#263238"></path><path d="M216.21,114.05s5-6.31,7.8-8.6,16.4-7,17.58-4.1c1.52,3.71-5.79,8-9.65,9.58,0,0,3.53,8.6-1.06,12.78S216.21,114.05,216.21,114.05Z" style="fill:#f7a9a0"></path><path d="M241.67,102.51c-1,4.39-6.25,6.18-9.87,8a.37.37,0,0,0-.11.6c1.24,3.7,1.91,9.28-.55,12.58-.07.1.05.22.14.13,3.12-3.19,2.91-8.73,1.29-12.69,3.74-1.84,8.88-3.86,9.15-8.65C241.72,102.49,241.68,102.48,241.67,102.51Z" style="fill:#263238"></path><path d="M214.73,111l13.65,29.2s-28.88,8.35-38.21,4.91-26.5-27.83-33.71-43.71c-7.38-16.24,3.16-14.26,10.39-7.73s26.78,22.95,27.42,23.09S214.73,111,214.73,111Z" style="fill:#E16A73"></path><path d="M214.46,126.7q-1.34-3-2.7-6c-.91-2-1.76-4-2.81-6,0-.09-.2,0-.17,0,.67,2,1.56,4,2.36,5.93s1.73,4.14,2.6,6.21c1.74,4.09,3.62,8.11,5.58,12.1,0,.1.18,0,.14-.07C217.89,134.82,216.26,130.73,214.46,126.7Z" style="fill:#263238"></path><path d="M156.46,101.36c7.21,15.87,24.38,40.26,33.7,43.7,2.18.8,5.42,1,9.1.73L158.67,89C154.32,88.06,151.77,91,156.46,101.36Z" style="opacity:0.1"></path><path d="M118.26,148.31l53.94-.79.5-15.72A18.22,18.22,0,0,0,176.53,120c-.42-7.28-14.25-27.5-15.38-28.56-4.56-4.24-12-4.5-15.58-1.41C126.25,106.54,118.26,148.31,118.26,148.31Z" style="fill:#E16A73"></path><path d="M153.64,126.85a50,50,0,0,1,8.54.75c1.41.27,2.8.61,4.19,1,.69.19,1.38.35,2.08.51a7.9,7.9,0,0,0,2.21.25c.06,0,.07.11,0,.12a13.16,13.16,0,0,1-2.08.16,12.62,12.62,0,0,1-2-.23c-1.43-.25-2.85-.58-4.27-.86-2.88-.55-5.76-1.09-8.66-1.4C153.5,127.11,153.51,126.85,153.64,126.85Z" style="fill:#263238"></path><path d="M147,130.47a54.78,54.78,0,0,1,7-1.11c1.17-.1,2.34-.12,3.52-.11.56,0,1.12,0,1.68.05s1.24.15,1.86.17c.06,0,.08.12,0,.12-.58,0-1.17.12-1.75.16l-1.75.12c-1.17.09-2.33.19-3.5.26-2.34.15-4.67.32-7,.56C146.87,130.7,146.86,130.49,147,130.47Z" style="fill:#263238"></path><path d="M150.63,90.73c.16,1.08,4.64,8.36,9.5,8.54,1.58,0,2.26-8.56,2.26-8.56l.19-.63,2.73-8.74-9.91-7.58-1.43-1s-.59,2.44-1.3,5.49c0,.14-.06.28-.1.43s-.09.34-.12.5c-.11.45-.22.92-.32,1.38s-.16.7-.23,1.07-.15.74-.22,1.11A59.33,59.33,0,0,0,150.63,90.73Z" style="fill:#f7a9a0"></path><path d="M152.67,78.23a18.4,18.4,0,0,0,9.91,11.85l2.73-8.74-9.91-7.58-1.43-1S153.38,75.18,152.67,78.23Z" style="fill:#263238"></path><path d="M178.12,67c2.09,15.94-7.22,19-10.65,19.44-3.12.4-13.8,1.39-17.53-14.25s3-21.64,10.11-22.95S176,51.06,178.12,67Z" style="fill:#f7a9a0"></path><path d="M175.26,64.51a8.32,8.32,0,0,1-1.12-.09,1.75,1.75,0,0,1-1.12-.31.57.57,0,0,1-.09-.7,1.43,1.43,0,0,1,1.36-.51,2.12,2.12,0,0,1,1.4.57A.61.61,0,0,1,175.26,64.51Z" style="fill:#263238"></path><path d="M164.21,65.62a10.24,10.24,0,0,0,1.06-.37,1.88,1.88,0,0,0,1-.58.59.59,0,0,0-.09-.7,1.42,1.42,0,0,0-1.45-.15,2.06,2.06,0,0,0-1.22.9A.62.62,0,0,0,164.21,65.62Z" style="fill:#263238"></path><path d="M166.94,68.44s-.08.07-.07.11c.24,1.08.32,2.36-.6,2.9,0,0,0,.08,0,.06C167.47,71.12,167.33,69.43,166.94,68.44Z" style="fill:#263238"></path><path d="M165.76,67.48c-1.78.19-1.27,3.73.38,3.55S167.25,67.33,165.76,67.48Z" style="fill:#263238"></path><path d="M165.09,67.77c-.28.24-.53.64-.9.73s-.8-.22-1.13-.53c0,0-.06,0-.06,0,.09.67.45,1.33,1.19,1.33s1.06-.67,1.14-1.38C165.34,67.84,165.2,67.67,165.09,67.77Z" style="fill:#263238"></path><path d="M173.26,67.08s.09,0,.09.09c.08,1.11.36,2.36,1.39,2.62,0,0,0,.06,0,.06C173.51,69.81,173.15,68.14,173.26,67.08Z" style="fill:#263238"></path><path d="M174.12,65.83c1.76-.31,2.26,3.22.64,3.52S172.65,66.1,174.12,65.83Z" style="fill:#263238"></path><path d="M174.89,66c.31.15.63.45,1,.42s.62-.45.81-.85c0,0,.06,0,.07,0,.11.67,0,1.41-.64,1.63s-1.1-.31-1.35-1C174.7,66.1,174.77,65.9,174.89,66Z" style="fill:#263238"></path><path d="M168.46,77.61c.29.24.57.58,1,.59a2.86,2.86,0,0,0,1.16-.36s.08,0,.06.06a1.52,1.52,0,0,1-1.37.69,1.19,1.19,0,0,1-.93-.92C168.34,77.61,168.42,77.58,168.46,77.61Z" style="fill:#263238"></path><path d="M172.56,73.08s.43,1.61.53,2.38c0,.07-.18.13-.44.18,0,0,0,0,0,0a3.69,3.69,0,0,1-3.74-.93.08.08,0,0,1,.1-.12,5.62,5.62,0,0,0,3.48.55c0-.22-.83-2.74-.7-2.76a6.5,6.5,0,0,1,1.8.18c-.8-3.39-2.13-6.61-2.87-10a.1.1,0,0,1,.19-.07,56.51,56.51,0,0,1,3.56,10.63C174.55,73.55,172.89,73.17,172.56,73.08Z" style="fill:#263238"></path><path d="M172.54,75.36a4.49,4.49,0,0,1-1.51,1.7,2.09,2.09,0,0,1-1.19.3c-.92-.07-1.09-.87-1.05-1.58a4.66,4.66,0,0,1,.19-1.12A5.86,5.86,0,0,0,172.54,75.36Z" style="fill:#263238"></path><path d="M171,77.06a2.09,2.09,0,0,1-1.19.3c-.92-.07-1.09-.87-1.05-1.58A2.07,2.07,0,0,1,171,77.06Z" style="fill:#ff9cbd"></path><path d="M150.81,71.76c2.62,0,2.73-5.52,2.73-5.52s5.27-.46,6.33-8.19a11.72,11.72,0,0,1-1.77,6.47s9.2-1.81,12.42-9.94c0,0-1.21,4.1-2.55,5.64a10.91,10.91,0,0,0,5.42-4.77s2,4.35,3.39,5.47c0,0-1.84-16.22-16.74-13.14,0,0-9.38,1.46-12.1,9.23S150.81,71.76,150.81,71.76Z" style="fill:#263238"></path><path d="M165.4,75.09A5.25,5.25,0,1,1,169.74,68h0a5.27,5.27,0,0,1-4.34,7.06Zm-1.06-9.73a4.29,4.29,0,0,0-1.1.26,4.54,4.54,0,1,0,1.1-.26Z" style="fill:#455a64"></path><path d="M177.11,72.33c-2,.22-4-1.63-4.64-4.3a6.23,6.23,0,0,1,.26-3.82A3.27,3.27,0,0,1,178.18,63a6.26,6.26,0,0,1,1.9,3.32c.65,2.82-.53,5.51-2.63,6Zm-1.59-9.64-.26,0a2.79,2.79,0,0,0-1.88,1.76,5.52,5.52,0,0,0-.22,3.39c.56,2.44,2.41,4.1,4.14,3.71s2.66-2.71,2.1-5.15a5.55,5.55,0,0,0-1.68-2.95A2.9,2.9,0,0,0,175.52,62.69Z" style="fill:#455a64"></path><path d="M169.7,68.66l-.55-.42c.62-.83,2.21-2.11,3.77-1.07l-.4.58C171.13,66.81,169.76,68.59,169.7,68.66Z" style="fill:#455a64"></path><path d="M147.24,75.22l-.68-.18c.08-.31.84-3.11,2.31-3.71s10.72-1.8,11.12-1.85l.09.69c-2.68.36-9.89,1.38-11,1.81S147.44,74.45,147.24,75.22Z" style="fill:#455a64"></path><path d="M153.63,72.38s-3.73-4.86-5.95-3.51.74,8.5,3.45,9.38a2.73,2.73,0,0,0,3.58-1.62Z" style="fill:#f7a9a0"></path><path d="M148.58,70.9a0,0,0,0,0,0,.07c1.91.68,3,2.37,3.74,4.14a1.5,1.5,0,0,0-2.26-.31c-.05,0,0,.11,0,.1a1.68,1.68,0,0,1,1.87.5,8.18,8.18,0,0,1,.94,1.45c.1.16.4.06.32-.13v0C153.16,74.29,151.15,71,148.58,70.9Z" style="fill:#263238"></path><path d="M258.21,31.89A35,35,0,0,1,259.91,20a34.8,34.8,0,0,1-1.7,11.85Z" style="fill:#263238"></path><path d="M230,35.05a35,35,0,0,1-4.45-11.12A35,35,0,0,1,230,35.05Z" style="fill:#263238"></path><path d="M207.15,51.89a35.26,35.26,0,0,1-9.42-7.4,34.91,34.91,0,0,1,9.42,7.4Z" style="fill:#263238"></path><path d="M195.78,77.9a35,35,0,0,1-11.85-1.7,34.8,34.8,0,0,1,11.85,1.7Z" style="fill:#263238"></path><path d="M198.94,106.11a35.2,35.2,0,0,1-11.12,4.45,35,35,0,0,1,11.12-4.45Z" style="fill:#263238"></path><path d="M292.85,120.33a35.06,35.06,0,0,1,9.42,7.4,34.91,34.91,0,0,1-9.42-7.4Z" style="fill:#263238"></path><path d="M304.22,94.32A35,35,0,0,1,316.07,96a34.8,34.8,0,0,1-11.85-1.7Z" style="fill:#263238"></path><path d="M301.06,66.11a35,35,0,0,1,11.12-4.45,35,35,0,0,1-11.12,4.45Z" style="fill:#263238"></path><path d="M284.22,43.26a35.06,35.06,0,0,1,7.4-9.42,34.91,34.91,0,0,1-7.4,9.42Z" style="fill:#263238"></path><g style="opacity:0.5"><path d="M296.19,97.3c-7,28.61-32.58,33.43-32.58,33.43-2.49,4.12-7.44,16.83-7.44,16.83l-31.56-5.12s-.35-13.56-1.41-18.25c0,0-22.74-12.66-20.35-42,1.65-20.4,20.82-47.85,54.58-42.39l.35.06C291.55,45.32,301.06,77.42,296.19,97.3Z" style="fill:#E16A73"></path><path d="M296.19,97.3c-2.94,12-10.3,22.76-21.2,28.9a41.73,41.73,0,0,1-11.36,4.61c-.57,1.06-1.44,2.75-2,4.06-1.92,4.18-3.65,8.45-5.34,12.72l0,.08h-.08c-.13,0-31.57-5-31.69-5.08q-.14-4.65-.43-9.28c-.13-2.81-.61-6.7-.92-9a44.51,44.51,0,0,1-20.65-37.86C202.16,62.79,221.79,40,245.88,39c12.73-.6,26.09,3,35.75,11.56C294.52,61.91,300,80.7,296.19,97.3Zm0,0C300,80.71,294.42,62,281.52,50.72c-9.64-8.5-22.95-12-35.62-11.4C222,40.36,202.59,63,203,86.48a44,44,0,0,0,10.73,29.24,41.64,41.64,0,0,0,9.6,8.31c.08,0,.07,0,.09.12a44,44,0,0,1,.63,4.55c.42,4.57.62,9.16.76,13.74l-.13-.15,31.54,5.16a127.42,127.42,0,0,1,7.37-16.75c16.51-4.07,28.64-17,32.64-33.4Z" style="fill:#263238"></path></g><rect x="229.83" y="92.27" width="3" height="54.24" transform="translate(-2.79 5.57) rotate(-1.37)" style="fill:#263238"></rect><rect x="230.3" y="122.12" width="54.24" height="3" transform="translate(54.02 324.06) rotate(-70.23)" style="fill:#263238"></rect><path d="M246.61,112.83a4.54,4.54,0,0,1-.82-.07c-3-.48-5.29-3.65-6.67-7.49a4,4,0,0,1-3.06,1c-5-.81-5.35-11.41-5.36-11.86l1,0c.07,2.83,1,10.33,4.52,10.89a3.3,3.3,0,0,0,2.56-1.07,22.73,22.73,0,0,1-.93-9.73c.47-2.91,1.85-4.41,3.77-4.09,2.23.36,3.22,2.34,2.72,5.43a17.63,17.63,0,0,1-4.41,8.71c1.23,3.69,3.32,6.78,6,7.22,2,.32,4.33-1,6.49-3.59.16-.21.33-.42.49-.64a9.52,9.52,0,0,1-.88-1.78c-1.49-3.91-1.05-9.29.95-11.74a3.14,3.14,0,0,1,3-1.28A2.44,2.44,0,0,1,258,94.42c1.06,2.79-.71,8.72-3.79,13.14a4.75,4.75,0,0,0,3,1.84c3,.48,6.81-6.28,8-8.93l.91.42c-.49,1-4.84,10.19-9.1,9.5a5.65,5.65,0,0,1-3.47-2c-.11.15-.23.29-.34.43C251.06,111.46,248.79,112.83,246.61,112.83Zm8.91-19.12a2.25,2.25,0,0,0-1.75,1c-1.77,2.17-2.14,7.2-.79,10.75a8.65,8.65,0,0,0,.58,1.25c2.69-4.06,4.36-9.52,3.46-11.89a1.46,1.46,0,0,0-1.16-1Zm-14.37-2.33c-1.46,0-2.06,1.76-2.31,3.29a21.75,21.75,0,0,0,.74,8.78,16.75,16.75,0,0,0,3.77-7.76c.29-1.77.19-4-1.89-4.28Z" style="fill:#263238"></path><rect x="217.48" y="144.88" width="42.43" height="23.35" transform="translate(28.12 -36.17) rotate(9.2)" style="fill:#c7c7c7"></rect><path d="M253,170.7c-3.17,4-8.53,7.11-17.54,5.65s-13.09-6.13-14.85-10.9Z" style="fill:#c7c7c7"></path><path d="M253,170.7a15.74,15.74,0,0,1-3.29,3.1l-28.48-6.88c-.23-.49-.44-1-.62-1.47Z" style="fill:#a6a6a6"></path><polygon points="262.01 153.02 217.02 149.93 217.34 147.92 262.34 151 262.01 153.02" style="fill:#a6a6a6"></polygon><polygon points="261.03 159.1 216.03 156.02 216.36 154 261.35 157.09 261.03 159.1" style="fill:#a6a6a6"></polygon><polygon points="260.04 165.19 215.04 162.1 215.37 160.09 260.37 163.18 260.04 165.19" style="fill:#a6a6a6"></polygon><g style="opacity:0.7000000000000001"><path d="M213.14,73.82c1.49.51,4.76-7.09,14.77-14.88,4.45-3.47,19.63-6.24,19.36-11.11s-13.87-2.11-21.52,4.31C213.43,62.48,211.76,73.36,213.14,73.82Z" style="fill:#fff"></path><path d="M289.11,90.86c2.83.45,3.54-3.94.71-4.39S286.28,90.4,289.11,90.86Z" style="fill:#fff"></path><path d="M269.94,122.62c1.36,1.42,10-4.28,14.69-12,3.91-6.39,5.8-15,4-15.78s-4.95,10.87-7.93,14.88C276.94,114.8,268.5,121.09,269.94,122.62Z" style="fill:#fff"></path></g><path d="M142,106c5.7,24.8,20.7,55.6,29.47,56.21,9.77.68,2.29-33.25,1-34-1-.55-11.33-12.43-22-27.07S140.64,99.88,142,106Z" style="fill:#f7a9a0"></path><path d="M172.61,128.14c-1.68-2-15.86-21-22.17-29s-11.23-6.5-9,6.45,10.26,37.67,20.87,50.19c10.23,12.06,15.37,6.7,15-5.69C177,139.91,172.61,128.14,172.61,128.14Z" style="fill:#E16A73"></path><path d="M175.12,131.54c-2-2.54-4-5.12-6-7.7s-3.95-5.18-5.92-7.77l-5.84-7.83-2.88-3.94c-1-1.33-1.91-2.64-2.85-4,1,1.27,2,2.55,3,3.83l3,3.86,5.92,7.77c1.94,2.62,3.9,5.22,5.83,7.84S173.24,128.88,175.12,131.54Z" style="fill:#263238"></path><path d="M156.27,106.29a17.14,17.14,0,0,1-1.22-2.27c-.17-.38-.34-.77-.5-1.17s-.31-.79-.46-1.2a11.85,11.85,0,0,1,1.29,2.23A15.44,15.44,0,0,1,156.27,106.29Z" style="fill:#263238"></path><path d="M171.5,162.19c7.28,0,14.22-7.54,35-27.61,2.88-2.77-11.14-29.3-14.36-26.49-4.06,3.53-19,18.13-20,19.34C164,137.6,166.56,162.19,171.5,162.19Z" style="fill:#f7a9a0"></path><path d="M186.15,115.72s5.73-9.29,9.77-15.18c2.25-3.3,6.61-8.59,9.37-10.25,4.13-2.49,23-10.24,25-5.72C232,88.68,215,93.28,215,93.28s16.78-6.17,18-.83-18.69,8-18.69,8,17.38-6,17.8-.25c.32,4.31-17.61,7.72-17.61,7.72s15-5,15.49-.59c.57,4.88-15.78,9.07-15.78,9.07-.58,11.46-5.54,16.67-9.51,20C203.77,137.14,186.15,115.72,186.15,115.72Z" style="fill:#f7a9a0"></path><path d="M209.06,95c1.94-.79,3.91-1.61,5.92-2.23s4-1.17,6.1-1.6a36.28,36.28,0,0,1,8.17-.92c-4.88.35-12.11,2.46-14.12,3.08s-4,1.13-6,1.75C209,95.14,209,95.06,209.06,95Z" style="fill:#263238"></path><path d="M211.17,102.34c2.52-.91,5-1.9,7.57-2.7s5-1.32,7.66-1.94c.2,0,.16.08,0,.13-2.58.72-4.91,1.59-7.48,2.33s-5.17,1.4-7.7,2.24C211.14,102.42,211.13,102.35,211.17,102.34Z" style="fill:#263238"></path><path d="M211.85,108.93a60.21,60.21,0,0,1,11.9-3.25c.2,0,.13.12-.08.17-4,1-7.1,1.76-11.77,3.21C211.83,109.08,211.77,109,211.85,108.93Z" style="fill:#263238"></path><path d="M189.26,109.94l8.46,36.19s-19,17-26.38,16.33c-4.87-.43-8.24-25.45,1.57-36Z" style="fill:#E16A73"></path><path d="M166.85,143a24.74,24.74,0,0,1,6.05-16.57s.15,0,.11.08c-3.71,5-5.85,13.76-6,16.5C167,143.07,166.86,143.06,166.85,143Z" style="fill:#263238"></path><path d="M190,149c-1.14-3.93-2.07-7.91-3-11.9s-1.85-8-2.67-12c-.47-2.27-1-4.54-1.33-6.82,0-.06.09-.09.1,0,1.15,3.92,2.1,7.9,3,11.88s1.86,8,2.73,12c.49,2.26.94,4.53,1.33,6.82A.1.1,0,0,1,190,149Z" style="fill:#263238"></path><path d="M189,109.7a35.74,35.74,0,0,0-3.53,3.21q-1.71,1.68-3.36,3.4c-2.21,2.28-7.14,6.86-10.43,11.61,0,0,.4,0,.44-.1,1.45-2.34,16-16.27,17-17.53a1.71,1.71,0,0,0,.17.33.1.1,0,0,0,.18,0c0-.25-.06-.46-.07-.71A.23.23,0,0,0,189,109.7Z" style="fill:#263238"></path><path d="M141.53,113.84c4.78,11.11,18.11,46.25,29.95,48.66-13.1-2-26.18-36.79-29.95-48.66Z" style="fill:#263238"></path><path d="M141.35,116a21.6,21.6,0,0,1,2.61,4.32,9,9,0,0,1-2.61-4.32Z" style="fill:#263238"></path><polygon points="228.32 207.8 201.39 474.94 194.82 474.94 221.1 214.33 164.76 214.33 117.24 474.94 110.6 474.94 159.31 207.8 228.32 207.8" style="fill:#E16A73"></polygon><rect x="153.66" y="265.23" width="66.57" height="6.53" style="fill:#E16A73"></rect><rect x="144.19" y="318.2" width="66.57" height="6.53" style="fill:#E16A73"></rect><rect x="132.93" y="371.17" width="72.64" height="6.53" style="fill:#E16A73"></rect><rect x="124.27" y="424.14" width="77.3" height="6.53" style="fill:#E16A73"></rect><g style="opacity:0.6000000000000001"><polygon points="228.32 207.8 201.39 474.94 194.82 474.94 221.1 214.33 164.76 214.33 117.24 474.94 110.6 474.94 159.31 207.8 228.32 207.8"></polygon><rect x="153.66" y="265.23" width="66.57" height="6.53"></rect><rect x="144.19" y="318.2" width="66.57" height="6.53"></rect><rect x="132.93" y="371.17" width="72.64" height="6.53"></rect><rect x="124.27" y="424.14" width="77.3" height="6.53"></rect></g><polygon points="283.33 474.94 276.67 474.94 222.94 212.65 166.62 212.65 199.08 474.94 192.51 474.94 159.31 206.88 228.35 206.88 283.33 474.94" style="fill:#E16A73"></polygon><polygon points="283.33 474.94 276.67 474.94 222.94 212.65 166.62 212.65 199.08 474.94 192.51 474.94 159.31 206.88 228.35 206.88 283.33 474.94" style="opacity:0.5"></polygon><rect x="154.97" y="200.92" width="76.55" height="6.88" style="fill:#E16A73"></rect><rect x="154.97" y="200.92" width="76.55" height="6.88" style="opacity:0.4"></rect></g><g id="freepik--Books--inject-52"><rect x="61.05" y="447.75" width="377.89" height="27.18" transform="translate(500 922.69) rotate(180)" style="fill:#a6a6a6"></rect><rect x="352.14" y="447.75" width="13.01" height="27.18" transform="translate(717.28 922.69) rotate(180)" style="fill:#E16A73"></rect><rect x="373.74" y="447.75" width="13.01" height="27.18" transform="translate(760.48 922.69) rotate(180)" style="fill:#E16A73"></rect><rect x="118.98" y="447.75" width="13.01" height="27.18" transform="translate(250.97 922.69) rotate(180)" style="fill:#E16A73"></rect><rect x="140.58" y="447.75" width="13.01" height="27.18" transform="translate(294.17 922.69) rotate(180)" style="fill:#E16A73"></rect><rect x="231.53" y="358.74" width="225.44" height="40.57" transform="translate(688.51 758.05) rotate(180)" style="fill:#E16A73"></rect><rect x="100.95" y="358.74" width="130.58" height="40.57" transform="translate(332.49 758.05) rotate(180)" style="fill:#E16A73"></rect><rect x="100.95" y="358.74" width="130.58" height="40.57" transform="translate(332.49 758.05) rotate(180)" style="opacity:0.1"></rect><rect x="235.81" y="362.95" width="221.16" height="32.15" transform="translate(692.79 758.05) rotate(180)" style="fill:#fff"></rect><path d="M235.81,363c55.13-.16,166.05-.4,221.16-.45h.45V363l.05,32.15v.5H457l-165.87-.22-55.43-.14c-.06-.12.19-32.16.14-32.29Zm0,0L236,395.1c-.84-.4,55.31-.15,55.14-.29,34,.47,132.57-1.13,165.38.29l0-32.15.45.45c-55.12,0-166-.29-221.16-.45Z" style="fill:#dbdbdb"></path><path d="M444.6,388.49q-22.35.33-44.7.47l-44.69.14-74.7-.14q-22.35-.12-44.7-.47,22.35-.35,44.7-.48l74.7-.14,44.69.14Q422.25,388.13,444.6,388.49Z" style="fill:#dbdbdb"></path><path d="M444.6,382.18q-22.35.35-44.7.47l-44.69.15-74.7-.15q-22.35-.12-44.7-.47,22.35-.35,44.7-.48l74.7-.14,44.69.14Q422.25,381.84,444.6,382.18Z" style="fill:#dbdbdb"></path><path d="M444.6,375.87q-22.35.35-44.7.48l-44.69.14-74.7-.14q-22.35-.14-44.7-.48,22.35-.35,44.7-.48l74.7-.14,44.69.15Q422.25,375.52,444.6,375.87Z" style="fill:#dbdbdb"></path><path d="M444.6,369.56q-22.35.35-44.7.48l-44.69.14-74.7-.14q-22.35-.12-44.7-.48,22.35-.35,44.7-.47l74.7-.15,44.69.15Q422.25,369.21,444.6,369.56Z" style="fill:#dbdbdb"></path><rect x="46.79" y="399.31" width="167.05" height="48.44" style="fill:#263238"></rect><rect x="213.84" y="399.31" width="218.99" height="48.44" style="fill:#37474f"></rect><rect x="46.79" y="404.34" width="160.14" height="38.39" style="fill:#fff"></rect><path d="M206.93,442.72,127,443l-80.19.16h-.43v-.44l-.07-38.38v-.5c.47,0,160.33.34,160.83.31.09.15-.25,38.4-.19,38.57Zm0,0-.19-38.38c1.57.1-162.53,1.21-159.45,0l-.07,38.38-.43-.43,80,.16,80.18.27Z" style="fill:#dbdbdb"></path><path d="M52.63,408.58q19.29-.3,38.57-.41l38.58-.13,38.58.13q19.29.1,38.57.41-19.29.3-38.57.41l-38.58.13L91.2,409Q71.92,408.89,52.63,408.58Z" style="fill:#dbdbdb"></path><path d="M52.63,413.56q19.29-.29,38.57-.41l38.58-.12,38.58.12q19.29.11,38.57.41-19.29.3-38.57.42l-38.58.12L91.2,414Q71.92,413.86,52.63,413.56Z" style="fill:#dbdbdb"></path><path d="M52.63,418.55q19.29-.3,38.57-.42l38.58-.12,38.58.12q19.29.12,38.57.42-19.29.3-38.57.41l-38.58.12L91.2,419Q71.92,418.86,52.63,418.55Z" style="fill:#dbdbdb"></path><path d="M52.63,423.53q19.29-.3,38.57-.41l38.58-.13,38.58.13q19.29.11,38.57.41-19.29.3-38.57.41l-38.58.13-38.58-.13Q71.92,423.84,52.63,423.53Z" style="fill:#dbdbdb"></path><path d="M52.63,428.51q19.29-.28,38.57-.41l38.58-.12,38.58.12q19.29.11,38.57.41-19.29.3-38.57.42l-38.58.12-38.58-.12Q71.92,428.81,52.63,428.51Z" style="fill:#dbdbdb"></path><path d="M52.63,433.5q19.29-.3,38.57-.41l38.58-.13,38.58.12q19.29.12,38.57.42-19.29.3-38.57.41l-38.58.13-38.58-.13Q71.92,433.8,52.63,433.5Z" style="fill:#dbdbdb"></path><path d="M52.63,438.48q19.29-.3,38.57-.41l38.58-.13,38.58.13q19.29.1,38.57.41-19.29.3-38.57.42l-38.58.12-38.58-.13Q71.92,438.79,52.63,438.48Z" style="fill:#dbdbdb"></path><rect x="60.18" y="320.73" width="338.75" height="38" style="fill:#a6a6a6"></rect><rect x="89.08" y="328.5" width="118.22" height="22.8" style="fill:#dbdbdb"></rect><rect x="235.82" y="328.5" width="142.34" height="3.53" style="fill:#dbdbdb"></rect><rect x="235.82" y="337.97" width="142.34" height="3.53" style="fill:#dbdbdb"></rect><rect x="235.82" y="347.44" width="142.34" height="3.53" style="fill:#dbdbdb"></rect><polygon points="318.2 320.73 140.31 320.73 196.16 183.35 371.42 183.35 318.2 320.73" style="fill:#E16A73"></polygon><polygon points="198.64 185.78 370.48 185.78 319.82 320.73 144.44 320.73 198.64 185.78" style="fill:#fff"></polygon><path d="M198.64,185.78a119.14,119.14,0,0,1-4.18,38.53c-5.74,19.8-34.21,59.46-39.75,86.2l-10.27,10.22H319.82l50.66-135Z" style="fill:#ebebeb"></path><path d="M198.64,185.78c-1.18,16.39-3.29,33.21-10.11,48.35-11.68,24.87-26.93,48.22-34.6,74.81a175,175,0,0,1,11.43-31c4.63-10,9.85-19.71,14.93-29.48s10.27-19.47,12.88-30.2a212.69,212.69,0,0,0,5.47-32.5Z" style="fill:#ebebeb"></path><path d="M196.85,193.78A141.68,141.68,0,0,1,183,239.58c-9.37,19.13-19.67,37.91-26.35,58.2-1.77,5-3.16,10.18-4.54,15.33,4.4-20.95,13.24-40.65,22.87-59.65,4.8-9.52,9.87-18.92,13.64-28.87a154.18,154.18,0,0,0,8.24-30.81Z" style="fill:#ebebeb"></path><path d="M252.82,318H420l-56.6-131.94H198.5s-.65,20,10.29,48.88C219.1,262.18,238.17,278.55,252.82,318Z" style="fill:#fff"></path><path d="M251.83,318a203.61,203.61,0,0,0-17.21-31.79c-9.8-15.2-21.55-29.46-28.62-46.32-6.59-17.07-7.78-35.74-7.5-53.83q.67,9,1.75,18c1.5,11.86,3.21,23.92,7.51,35.09,6.88,16.79,18.37,31,27.8,46.44A187,187,0,0,1,251.83,318Z" style="fill:#fff"></path><path d="M200.14,189.88c3.46,20.32,9.42,40.5,19.37,58.62,7.45,13.63,15.72,26.81,22.85,40.62,2.33,4.64,4.5,9.35,6.42,14.17-8.43-19-20.2-36.14-30.14-54.31s-15.81-38.56-18.5-59.1Z" style="fill:#ebebeb"></path><polygon points="256.26 320.73 430.35 320.73 371.42 183.35 197.33 183.35 256.26 320.73" style="fill:#E16A73"></polygon><polygon points="260.73 320.73 430.35 320.73 371.42 183.35 201.8 183.35 260.73 320.73" style="fill:#fff;opacity:0.5"></polygon><polygon points="368.63 320.73 406.93 320.73 348 183.35 309.7 183.35 368.63 320.73" style="fill:#E16A73"></polygon><polygon points="274.36 320.73 288.23 320.73 229.31 183.35 215.44 183.35 274.36 320.73" style="fill:#E16A73"></polygon></g><g id="freepik--Backpack--inject-52"><path d="M414,382.31c.57-.56-2.54-8.8-4.86-10.14s-16.22-.49-17.65,2.28,1.36,11.12,2.36,11.21,3.66-.35,4.13-1-1.42-5.85-.72-6.86c.93-1.33,8.81-1.77,9.62-1s2,5.44,2.15,5.73S413.06,383.21,414,382.31Z" style="fill:#263238"></path><path d="M378.72,460.66c3.35,5.62,14.15,12.57,20.35,13.27s47.16,3.62,53.17-5.32c5.47-8.14-9.49-63.08-22.16-80a18.39,18.39,0,0,0-3.37-3.61l-.26-.2c-11.55-8.36-33.15-2.19-35.85-1.25-4.21,1.47-10,5.55-12.58,13.91S375.36,455,378.72,460.66Z" style="fill:#E16A73"></path><path d="M378.72,460.66c3.35,5.62,14.15,12.57,20.35,13.27s47.16,3.62,53.17-5.32c5.47-8.14-9.49-63.08-22.16-80a18.39,18.39,0,0,0-3.37-3.61l-.26-.2c-11.55-8.36-33.15-2.19-35.85-1.25-4.21,1.47-10,5.55-12.58,13.91S375.36,455,378.72,460.66Z" style="fill:#fff;opacity:0.4"></path><path d="M401.6,455.62c.89,4.05,7.93,13.3,15.68,15.24s35-2.25,40.76-8a6.14,6.14,0,0,0,1.23-3.64c1.27-12.42-8.7-49.21-18.1-60a10.25,10.25,0,0,0-3-2.53,24.53,24.53,0,0,0-4.11-1.54,46.49,46.49,0,0,0-23.93.41c-4.7,1.43-8.47,3.7-10.07,6.77C395.94,410.14,400.71,451.58,401.6,455.62Z" style="fill:#455a64"></path><path d="M401.6,455.62c.89,4.05,7.93,13.3,15.68,15.24s35-2.25,40.76-8a6.14,6.14,0,0,0,1.23-3.64,37.44,37.44,0,0,1-15.68,5.95,68.2,68.2,0,0,1-12.28.72c-4.07-.11-8.27-.71-11.75-3.05-6.58-4.41-9.32-13.41-10.65-21-1.45-8.29-1.43-16.89-1.23-25.27a99.86,99.86,0,0,1,2.41-21c-4.7,1.43-8.47,3.7-10.07,6.77C395.94,410.14,400.71,451.58,401.6,455.62Z" style="opacity:0.1"></path><path d="M405.71,438.9l1.86-.21c-1-8.58-2.73-31.89,1.25-36.67s20.09-6.33,26.94-4.62a31.74,31.74,0,0,1,5.41,1.84,10.07,10.07,0,0,0-3-2.53,24.53,24.53,0,0,0-4.11-1.54c-8.27-1.12-22.61.81-26.64,5.66C402.08,407.2,405.57,437.61,405.71,438.9Z" style="fill:#263238"></path><path d="M383.3,432.87l1.86-.06c-.86-34.7.7-36.07,7.26-41.84l.23-.21c6.4-5.61,22.3-5.89,28.57-5.15a22.71,22.71,0,0,1,8.86,3,18.39,18.39,0,0,0-3.37-3.61,24.84,24.84,0,0,0-5.27-1.22c-4.4-.53-22.4-1.09-30,5.61l-.23.19C384.27,395.65,382.4,397.28,383.3,432.87Z" style="fill:#263238"></path><path d="M373.14,469.32c.92,1.3,4.85,3.87,9.2,4.73,8.34,1.65,19.07.72,19.2-1.63,0-.23,0-.47,0-.71.2-9.32-4.91-32.21-6-34.86-1.29-3.13-17.18-9-21.13-4.74C372.05,434.68,370.47,465.57,373.14,469.32Z" style="fill:#263238"></path><path d="M401.57,471.71c0,.24,0,.48,0,.71-.13,2.35-10.86,3.29-19.2,1.63-4.34-.86-8.28-3.43-9.21-4.73-2.66-3.75-1.08-34.65,1.31-37.21a5.22,5.22,0,0,1,3.19-1.39,4.8,4.8,0,0,0-2.1,3c-1.18,8.51,1.67,28.8,5.72,33.46s16.59,5.5,20.17.59C401.54,469.23,401.59,470.57,401.57,471.71Z" style="opacity:0.1"></path></g><g id="freepik--character-3--inject-52"><path d="M196.47,428.5c2.59.06,69.58-20.69,71.63-23.09.22-.27-.83-10.19-2.56-18.07-.08-.37,23.78-31.67,23.78-31.67L246.14,338.9l-20.63,42.8-5.37,11.13s-22.34,22.48-24.31,25.36S193.89,428.44,196.47,428.5Z" style="fill:#a6a6a6"></path><path d="M194.59,428.88c2.69.07,72.63-21.32,74.78-23.82.82-.95-.43-5.27-3.83-17.72l-45.86,5.55S196,415.13,194,418.13,191.89,428.81,194.59,428.88Z" style="fill:#E16A73"></path><path d="M194.73,425.77c11.64-3.87,58.94-18.4,70.73-21.34.1,0,.12,0,0,.07-11.45,4.09-58.87,18.23-70.7,21.46C194.54,426,194.49,425.85,194.73,425.77Z" style="fill:#263238"></path><path d="M197.69,414.23a9.88,9.88,0,0,1,7.89.72,9.55,9.55,0,0,1,4.53,5.46c0,.07-.11.11-.14,0a11.39,11.39,0,0,0-12.24-6.07A.08.08,0,1,1,197.69,414.23Z" style="fill:#263238"></path><path d="M215,397.52c4.67-1.5,10.62-1.51,14.71,1.44.15.11,0,.34-.17.31A67.89,67.89,0,0,0,215,398.12.31.31,0,0,1,215,397.52Z" style="fill:#263238"></path><path d="M211.76,400c4.67-1.5,10.62-1.51,14.71,1.44.15.11,0,.34-.17.31a67.89,67.89,0,0,0-14.45-1.15A.31.31,0,0,1,211.76,400Z" style="fill:#263238"></path><path d="M208.56,402.56c4.68-1.5,10.62-1.51,14.71,1.44.16.11,0,.34-.16.31a67.89,67.89,0,0,0-14.45-1.15A.31.31,0,0,1,208.56,402.56Z" style="fill:#263238"></path><path d="M205.37,405.08c4.68-1.5,10.62-1.51,14.71,1.44.16.11,0,.34-.16.31a67.94,67.94,0,0,0-14.45-1.15A.31.31,0,0,1,205.37,405.08Z" style="fill:#263238"></path><path d="M208.52,393.31c3.54,2.5,8,3.37,12.07,4.66.42.13.73-.27.73-.64a.12.12,0,0,0,.1-.17,25.79,25.79,0,0,0-7.93-10.7c-2.09-1.6-5.67-2.61-7.44.09S206.46,391.86,208.52,393.31Zm-1.4-3.82c-1.1-5.25,4.71-2.73,6.2-1.5a27.93,27.93,0,0,1,2.68,2.65,74.16,74.16,0,0,1,4.77,6.14c-1.94-.75-3.94-1.34-5.92-2C212.5,394,207.72,392.38,207.12,389.49Z" style="fill:#263238"></path><path d="M237.17,389.07c-1.3-2.95-5-2.55-7.33-1.32a25.77,25.77,0,0,0-9.58,9.25.13.13,0,0,0,.07.19.61.61,0,0,0,.62.75c4.2-.61,8.77-.73,12.66-2.61C235.89,394.23,238.41,391.86,237.17,389.07Zm-10,6.65c-2.06.34-4.12.59-6.17,1a75.15,75.15,0,0,1,5.72-5.27,27.54,27.54,0,0,1,3.08-2.17c1.67-1,7.81-2.49,5.87,2.5C234.56,394.55,229.59,395.3,227.13,395.72Z" style="fill:#263238"></path><path d="M223.33,383.7l47.59,7s25.94-47.17,36.42-58.91l0,0a16.42,16.42,0,0,1,1.92-1.87h0a10,10,0,0,1,3.43-.86h0c14.07-1.72,61.43,2.86,94.15.73l-15.29-20.42-6.78-9.06c-36.87-4.19-82.12-19.24-102.53-9C260.15,302.44,223.33,383.7,223.33,383.7Z" style="fill:#37474f"></path><path d="M229.29,375.62c8.09,1,5.78.63,13.86,1.75,3.95.55,23.83,3.27,27.43,4.39a.08.08,0,0,1,0,.16c-3.77,0-23.58-3.11-27.52-3.74-8.06-1.27-5.73-1-13.78-2.34A.11.11,0,1,1,229.29,375.62Z" style="fill:#263238"></path><path d="M270.67,381.1c5.38-9,29.88-53.46,34.75-55.22,4.45-1.59,93.32.21,94.64.22.09,0,.1.14,0,.14-10.52-.13-91.76-.37-94.08.54-4.81,1.91-34.11,53.48-34.83,54.56C271,381.63,270.48,381.41,270.67,381.1Z" style="fill:#263238"></path><path d="M431.76,311.17S434.58,338,421,351.3c-16.27,16-123.66,12-140.31,6.62s-17.18-32.23,1-38.46c17.3-5.93,94-9.37,95.86-10.1s7.13-9.22,7.13-9.22Z" style="fill:#37474f"></path><path d="M409,310.42c0-.12.22-.08.22,0a14.79,14.79,0,0,0,3.47,9.51c2.55,2.94,6.31,4.59,9.71,6.31.33.16.08.68-.26.57a30.09,30.09,0,0,1-6-2.58,14.56,14.56,0,0,1-4.53-3.76A13,13,0,0,1,409,310.42Z" style="fill:#263238"></path><path d="M378.28,307.69c.76-1,1.59-1.89,2.38-2.84,1.87-2.23,3.75-4.47,5.72-6.62.18-.21.55.08.38.3-1.32,1.73-2.72,3.41-4.1,5.1-.71.86-1.42,1.73-2.13,2.58a16.66,16.66,0,0,0-2,2.53c-.51,1,.17,1.78,1.16,1.88a3.47,3.47,0,0,0,2.4-.88,30.93,30.93,0,0,0,4-4.35c.79-.88,1.58-1.77,2.38-2.65s1.76-1.82,2.61-2.75a.08.08,0,0,1,.12.09c-.75,1-1.43,2.08-2.18,3.11s-1.49,2-2.26,3-1.48,1.88-2.25,2.79a9.52,9.52,0,0,1-2.29,2.05c-1.42.83-3.89,1-4.65-.82A2.59,2.59,0,0,1,378.28,307.69Z" style="fill:#263238"></path><path d="M283,358c5.73.1,11.45.43,17.18.55s11.38.15,17.06.09q17.13-.17,34.23-1.35c11.51-.8,23.93-1.95,35.36-3.54,5.47-.76,11-1.4,16.43-2.56a25.89,25.89,0,0,0,12.95-6.63c7.4-7.18,10.28-17.75,11.45-27.84.16-1.35.29-2.71.4-4.07,0-.09.15-.09.14,0-.66,10.34-2.27,21.13-8.77,29.45a25.89,25.89,0,0,1-10.6,8.24c-5.12,2.05-10.8,2.54-16.21,3.27-11.48,1.57-23.94,2.78-35.49,3.68s-23.27,1.47-34.92,1.65-23.32,0-35-.55q-2.13-.09-4.26-.27A.07.07,0,0,1,283,358Z" style="fill:#263238"></path><path d="M267.64,333a18.49,18.49,0,0,1,7.67-11c4.12-2.82,9.06-4.1,13.94-4.82,5.53-.8,11.12-1.22,16.68-1.76q17.1-1.67,34.22-3.08c11.41-.95,36-2.87,37.37-2.92.12,0,.14.2,0,.21-11,1.23-21,2.28-32.07,3.29S323.3,315,312.22,316.1q-8.28.82-16.56,1.67c-5.12.54-10.38,1.06-15.17,3a18.88,18.88,0,0,0-9.91,8.43A19.72,19.72,0,0,0,268.94,342a22.33,22.33,0,0,0,5.33,10.77,19.09,19.09,0,0,0,10,6c1,.21,2.23.37,3.15.55.07,0,.15.17.08.17-8.25.21-15.89-5.81-18.87-13.34A22.13,22.13,0,0,1,267.64,333Z" style="fill:#263238"></path><path d="M389,245.85c-7.13,20.51-19.11,37-23.82,40.58-6,4.58-41.64,8.32-43.45,8.32-4.46,0-4.75-29.74,0-29.91,7.27-.25,32.32.05,34-1.38s11.37-11.15,24.37-25.56C389.18,228,393.47,233.13,389,245.85Z" style="fill:#d3766a"></path><path d="M328,293.93c-3.24.86-18.42,3.49-22.81,3.27s-17-1.74-17.15-5.12,3.55-3.22,3.55-3.22-5.21-1.49-5.08-4.9,5.91-3,5.91-3-5.24-1.92-4.87-5.32,6.11-2,6.11-2-4.87-1.53-3.38-4.2c1.78-3.21,10.45.63,15.31.5,1.1,0,22.34-2.18,22.34-2.18Z" style="fill:#d3766a"></path><path d="M293.16,273.55c6.38,2.81,9.65,2.93,16.44,1.91.13,0,.19.18,0,.21-6.55,1.6-10.68,2-16.64-1.82C292.71,273.66,292.85,273.42,293.16,273.55Z" style="fill:#263238"></path><path d="M291.9,280.74c6.88,2.33,10.43,2.5,17.62,2,.1,0,.12.16,0,.18-7,1.12-11.13,1.46-17.7-1.78C291.54,281,291.59,280.63,291.9,280.74Z" style="fill:#263238"></path><path d="M291.94,288.82c6.82,1.78,10.71,2.13,17.62.71a.13.13,0,0,1,.06.25c-6.9,2.13-11.75,1.73-17.71-.75C291.5,288.86,291.51,288.71,291.94,288.82Z" style="fill:#263238"></path><path d="M332.07,268.89s-7.19-4.95-10.83-6.43-19.23-2-19.53,1.37c-.39,4.34,8.55,6.41,13.06,6.85,0,0-.91,10,5.18,12.91S332.07,268.89,332.07,268.89Z" style="fill:#d3766a"></path><path d="M302,265.06c2.5,4.21,8.46,4.41,12.8,5.16a.41.41,0,0,1,.31.59c-.1,4.23,1,10.23,4.59,12.87a.1.1,0,0,1-.1.18c-4.25-2.31-5.8-8.12-5.4-12.75-4.46-.7-10.43-1.16-12.24-6C301.94,265.05,302,265,302,265.06Z" style="fill:#263238"></path><path d="M327.27,263l7.6,34.6s27.86-5.77,33.55-10.7,17.65-28.35,22.64-41.67-2.89-17.91-10.22-9.94-25.54,27.23-26.48,27.59S327.27,263,327.27,263Z" style="fill:#a6a6a6"></path><path d="M338.56,283.14c-.86-3.86-1.76-7.71-2.48-11.59-.41-2.21-.83-4.42-1.22-6.63,0-.08.13-.12.15,0,1,3.84,2,7.69,2.88,11.57s1.72,7.71,2.51,11.58q.68,3.3,1.14,6.64s-.06.06-.07,0C340.32,290.88,339.44,287,338.56,283.14Z" style="fill:#263238"></path><path d="M391.07,245.26c-5,13.32-17,36.73-22.65,41.66-2.1,1.83-7.22,3.76-12.85,5.48L385.35,232C390.88,229.67,395,234.8,391.07,245.26Z" style="opacity:0.1"></path><path d="M434.85,313.49c-.17.17-69.61-8.7-70.21-9.45-.84-1.07,9.51-58.75,21.71-73.29,3.06-3.63,12.78-3.38,17.13.28C425.05,249.19,435.46,312.86,434.85,313.49Z" style="fill:#a6a6a6"></path><path d="M412.19,238.61c12.29,9.45,44.69,47.64,37.93,56.71s-53.16,6.08-66.7,2.18c-4-1.16,6.29-26.78,10.59-28.05,3.58-1.06,23.67,4.38,24,3.22.41-1.32-4.05-9.79-11.23-25.26C398.52,229.57,406.76,234.44,412.19,238.61Z" style="fill:#d3766a"></path><path d="M375.12,266.47c-8.95.24-11.21,1.67-18.87-2.14-5-2.51-8.78-.37-5.37,4.37,5.59,7.74,17.21,9.87,21.44,9.44Z" style="fill:#d3766a"></path><path d="M399.76,271s-10.73-3.83-20.3-4.52c-6.61-.48-21.12.08-32.39,16.35-2.67,3.86-3.74,11.26,2.92,6.54,4.72-3.35,6.71-6.91,9.81-8.36,0,0-.24,9.57,3.73,12.1A86.73,86.73,0,0,0,374.38,299a17.77,17.77,0,0,0,1.28-1.93s3.93,2,10.42.28Z" style="fill:#d3766a"></path><path d="M373.08,267.07c-2.78,2.09-8.59,6.62-12.06,12-3.85,6-9.66,18.46-5.24,21.25,3.24,2,5.88-2.52,5.88-2.52s-1.31,5.67,2,6.88c3,1.11,4.87-2.56,4.87-2.56s-.2,3.58,2.93,4.08c3.77.6,3.58-7,7.92-9.69C380.37,295.88,373.08,267.07,373.08,267.07Z" style="fill:#d3766a"></path><path d="M368,282.06a28.27,28.27,0,0,0-6.4,15.58c0,.14.1.22.14.09A70,70,0,0,1,368,282.1,0,0,0,0,0,368,282.06Z" style="fill:#263238"></path><path d="M373.88,286.12c-1.76,2.27-5.37,9.43-5.45,15.93,0,.15.11.22.14.09a74.64,74.64,0,0,1,5.37-16S373.9,286.09,373.88,286.12Z" style="fill:#263238"></path><path d="M359.79,281c-2.71,1.32-4.33,3-6.46,5.09A39.7,39.7,0,0,1,350,289c-1.06.82-2.61,2.06-4,1.28a2.38,2.38,0,0,1-.92-2.24,11.71,11.71,0,0,1,1-3.51s-.05-.08-.07,0a16.21,16.21,0,0,0-1.23,3.18A3.82,3.82,0,0,0,345,290c.68,1.5,2.57,1.4,3.81.75a12.81,12.81,0,0,0,2.06-1.46c.63-.51,1.23-1.05,1.81-1.61,1.21-1.14,2.34-2.35,3.53-3.5a38.64,38.64,0,0,1,3.69-3.06S359.84,281,359.79,281Z" style="fill:#263238"></path><path d="M355.48,292a89.82,89.82,0,0,1,4.38-11s0-.09-.07,0c-1.87,2.47-4.51,8.66-5.05,10.59a15.78,15.78,0,0,0-.77,6.31c.49,3,2.56,3.21,3.32,3.24a3.86,3.86,0,0,0,2.46-.84,7.68,7.68,0,0,0,1.94-2.54s0-.09-.06,0c-.84,1.35-2.36,2.79-4,2.85a2.78,2.78,0,0,1-2-.69,3.6,3.6,0,0,1-.87-2.32A16.52,16.52,0,0,1,355.48,292Z" style="fill:#263238"></path><path d="M399.76,269.75l-9.3,32.45s58,3.28,61.22-7.26-24.84-45-36.47-54.5c-13.47-11-14.19-6.36-9.8,4.62C410,256.56,417.92,273,417.92,273Z" style="fill:#a6a6a6"></path><path d="M436.25,278.16a66.83,66.83,0,0,0-8.95-3.43,63.62,63.62,0,0,0-9.25-2c-1.79-.28-3.58-.47-5.37-.68a0,0,0,0,0,0,.09,84.91,84.91,0,0,1,9.33,1.95q4.58,1.2,9.11,2.56c1.71.51,3.4,1.1,5.09,1.67A.07.07,0,0,0,436.25,278.16Z" style="fill:#263238"></path><path d="M399.9,269.64c.29,0,16.42,2.54,17,2.69-.1-.22-4.19-7.9-4.8-9-.06-.12-.11-.23-.17-.34-.37-.49-.74-1-1.09-1.47l-1.33-1.92s0-.05,0,0l1.41,1.87c.22.28.42.58.63.88-.41-.8-.81-1.6-1.21-2.41-.64-1.28-1.23-2.58-1.82-3.88,0,0,0-.07.07,0,1.2,2.24,2.48,4.44,3.69,6.67s5.8,10.44,5.78,10.44-17.83-3.15-18.18-3.23C399.74,269.82,399.75,269.62,399.9,269.64Z" style="fill:#263238"></path><path d="M402.12,289.43c1-3.62,2-7.25,3.16-10.83.65-2,1.3-4.07,2-6.1a.07.07,0,0,1,.14,0c-.88,3.67-1.76,7.35-2.81,11s-2.05,7.23-3.13,10.83c-.62,2-1.3,4.07-2,6.08,0,0-.08,0-.07,0C400.09,296.71,401.1,293.07,402.12,289.43Z" style="fill:#263238"></path><path d="M389.82,302.79c.4-1,.89-2.47,1.34-3.47.12-.27.31-.25.22,0-.28.92-.48,1.92-.76,2.85l2.44.07,2.81.12c1.84.07,3.67.12,5.51.16,3.73.07,7.45,0,11.17,0a216.62,216.62,0,0,0,22.34-1.58c2.07-.27,4.14-.58,6.2-.95a57.84,57.84,0,0,0,6-1.3.05.05,0,0,1,0,.1,33.56,33.56,0,0,1-5.18,1.56q-2.78.6-5.58,1c-3.72.58-7.48.95-11.24,1.23q-11.17.81-22.39.69-3.15,0-6.28-.14c-1.06,0-2.12-.07-3.17-.13A19.84,19.84,0,0,1,389.82,302.79Z" style="fill:#263238"></path><path d="M390.7,248.89S401,236.53,408.43,236l6.85,4.93s2.14.47,2.64-.9c1.25-3.4.76-11.26-6.49-15.65-6.63-4-16.69-2.64-24.88.44-7.87,3-14.33,9.05-11.31,14.06S390.7,248.89,390.7,248.89Z" style="fill:#a6a6a6"></path><path d="M389.64,246.49s-9.95-5.67-11.31-9.5,6.11-8.39,11-10.38c7.62-3.08,13-3.12,17.86.62S389.64,246.49,389.64,246.49Z" style="opacity:0.1"></path><path d="M389.94,244.75c3-.12,8.62-6.16,10.62-11,.13-.33-.72-3.58-1.56-7.58-.51-2.43-1-5.15-1.29-7.66l-15.33,5.59a40.66,40.66,0,0,1,2.6,9.47,6.13,6.13,0,0,1,0,1v.17C384.88,236.76,385.31,244.94,389.94,244.75Z" style="fill:#d3766a"></path><path d="M385,234.6a.86.86,0,0,0,0,.17,9.37,9.37,0,0,0,1.63-.1c8.94-1.2,9.91-12.36,10-15.78l-14.23,5.18a40.58,40.58,0,0,1,2.61,9.49A6,6,0,0,1,385,234.6Z" style="fill:#263238"></path><path d="M396.51,200.44c2.48,5.33,1.79,21.82-1.66,26-5,6-14.35,7.83-19.73,1.54-5.22-6.09-3.95-27.57,0-31.45C381,190.78,392.84,192.56,396.51,200.44Z" style="fill:#d3766a"></path><path d="M384.71,210.92a13.41,13.41,0,0,1-1.38-.51,2.38,2.38,0,0,1-1.32-.78.77.77,0,0,1,.13-.92,1.87,1.87,0,0,1,1.9-.17,2.74,2.74,0,0,1,1.58,1.21A.81.81,0,0,1,384.71,210.92Z" style="fill:#263238"></path><path d="M373.47,210.9a13.56,13.56,0,0,0,1.43-.35,2.36,2.36,0,0,0,1.39-.64.77.77,0,0,0,0-.93,1.9,1.9,0,0,0-1.88-.37,2.75,2.75,0,0,0-1.69,1A.8.8,0,0,0,373.47,210.9Z" style="fill:#263238"></path><path d="M383.79,223.83c-.27.26-.53.62-.94.65a2.9,2.9,0,0,1-1.19-.29,0,0,0,0,0-.05.05,1.5,1.5,0,0,0,1.41.62,1.19,1.19,0,0,0,.88-1C383.92,223.82,383.83,223.8,383.79,223.83Z" style="fill:#263238"></path><path d="M382.66,220.49a3.76,3.76,0,0,1-2.55,1.66,4.42,4.42,0,0,1-1.36,0,1.09,1.09,0,0,1-.26,0l-.24,0a.28.28,0,0,1-.22-.25h0a.41.41,0,0,1,0-.11h0v-.1c0-.86.08-2.16.08-2.16-.31.16-1.91.86-1.88.41a56.17,56.17,0,0,1,1.58-11.44.1.1,0,0,1,.2,0c-.1,3.56-.84,7.09-1,10.67a6.67,6.67,0,0,1,1.79-.53c.12,0-.23,2.51-.19,2.9v0a5.27,5.27,0,0,0,3.94-1.18C382.64,220.33,382.73,220.4,382.66,220.49Z" style="fill:#263238"></path><path d="M382.16,213.6s.08.05.08.1c0,1.1.16,2.37,1.17,2.71,0,0,0,.07,0,.07C382.18,216.33,382,214.65,382.16,213.6Z" style="fill:#263238"></path><path d="M383.12,212.43c1.77-.18,2,3.38.34,3.54S381.63,212.57,383.12,212.43Z" style="fill:#263238"></path><path d="M375.71,213.56s-.08.06-.07.1c.11,1.1.05,2.38-.93,2.81,0,0,0,.07,0,.06C375.93,216.28,376,214.58,375.71,213.56Z" style="fill:#263238"></path><path d="M374.65,212.48c-1.78,0-1.68,3.55,0,3.56S376.15,212.49,374.65,212.48Z" style="fill:#263238"></path><path d="M379.27,221.86a4.4,4.4,0,0,0,1.78,1.37,1.91,1.91,0,0,0,1.21.07c.87-.23.89-1,.73-1.71a4.42,4.42,0,0,0-.4-1.05A5.73,5.73,0,0,1,379.27,221.86Z" style="fill:#263238"></path><path d="M381.05,223.23a1.91,1.91,0,0,0,1.21.07c.87-.23.89-1,.73-1.71A2,2,0,0,0,381.05,223.23Z" style="fill:#ff9cbd"></path><path d="M372.42,203.2c.6-1.46,1.29-2.94,2.16-3.24s1.33,2.42,3.32,2.51c2.68.13,4.25-3.07,8-2.95,4.65.14,7.1,3.51,7.37,11.15.25,6.81,4.17,7.64,4.17,7.64s3-15.23-1.38-20.13-14.1-6.91-20.53-2C373.19,197.92,372.42,203.2,372.42,203.2Z" style="fill:#263238"></path><path d="M394.91,214s3-5.65,5.54-4.64.69,8.91-2,10.27a2.83,2.83,0,0,1-4-1.06Z" style="fill:#d3766a"></path><path d="M399.87,211.64s.06.05,0,.07c-1.85,1-2.66,2.95-3.15,4.91a1.56,1.56,0,0,1,2.28-.7c.05,0,0,.11,0,.11a1.74,1.74,0,0,0-1.84.83,8.21,8.21,0,0,0-.73,1.66c-.07.18-.4.13-.36-.08l0-.05C395.72,215.92,397.23,212.21,399.87,211.64Z" style="fill:#263238"></path><path d="M379.67,194.11a23.93,23.93,0,0,1,6.47-2.48c2.54-.51,10.67-.5,12.73,1s3.15,9.05,3.29,10.16.15,7.89-2.17,9.7-3.42-9.62-7.55-13.12S379.67,194.11,379.67,194.11Z" style="fill:#E16A73"></path><path d="M379.67,194.11s8.63,1.73,12.76,5.23,5.24,14.93,7.56,13.12c1-.8,1.46-1.9,1.77-3.73-.76-3.3-2.51-8.39-5.57-11.77-2.86-3.17-7.48-4.53-12.33-4.71A28.28,28.28,0,0,0,379.67,194.11Z" style="opacity:0.1"></path><path d="M399.84,219.3c-.45-3-4.17-11-7.78-15.39s-13.37-6.44-14.7-6.27c-3.23.44-3.83,2-4.36,1.79s2.43-4.18,3.3-4.8a10.59,10.59,0,0,1,4.4-1.46c1.42-.08,10.18.13,13.62,3.6S403,210.3,402.41,213c-.15.65-1,1.13-1.17,2.06-.27,1.21-.41,2.61-.71,3.46S399.88,219.56,399.84,219.3Z" style="fill:#E16A73"></path><path d="M391.16,201.86a16.1,16.1,0,0,0,2-1.7,11.42,11.42,0,0,0,1.66-2.07c0-.05.12,0,.09,0a8.35,8.35,0,0,1-1.48,2.28,7.12,7.12,0,0,1-2.18,1.59C391.15,202.06,391.08,201.92,391.16,201.86Z" style="fill:#263238"></path><path d="M399.64,216.25c.07-.23.2-.43.28-.65a3,3,0,0,0,.23-.78,6.9,6.9,0,0,1,.24-1.5,5.47,5.47,0,0,1,.63-1.07,2,2,0,0,0,.51-1.29c0-.06.1-.07.1,0a5.13,5.13,0,0,1-.84,2.44,9.84,9.84,0,0,0-.3,1.62,2.35,2.35,0,0,1-.71,1.33C399.72,216.38,399.61,216.33,399.64,216.25Z" style="fill:#263238"></path><path d="M398.34,213c.26-.37.55-.71.77-1.1a9.26,9.26,0,0,0,.57-1.19c.17-.41.3-.82.45-1.22s.43-.94.59-1.43c0-.06.11,0,.09,0-.17.51-.25,1-.4,1.55a10,10,0,0,1-.48,1.29,7.18,7.18,0,0,1-.64,1.15,3.33,3.33,0,0,1-.92,1S398.32,213.06,398.34,213Z" style="fill:#263238"></path><path d="M397,210.14a8.74,8.74,0,0,0,1.52-2c.39-.72.74-1.47,1.08-2.21a.05.05,0,0,1,.1,0,10.24,10.24,0,0,1-.88,2.39,5.12,5.12,0,0,1-.7,1,5.75,5.75,0,0,1-1.05.85S397,210.18,397,210.14Z" style="fill:#263238"></path><path d="M395.58,207.38a2.85,2.85,0,0,0,.74-.88c.24-.36.47-.73.69-1.1l.64-1.08a3.07,3.07,0,0,0,.46-1.16s.1,0,.1,0a3.17,3.17,0,0,1-.26,1.21,8,8,0,0,1-.6,1.25,11.08,11.08,0,0,1-.77,1.12,2,2,0,0,1-.93.75C395.57,207.52,395.51,207.43,395.58,207.38Z" style="fill:#263238"></path><path d="M394.43,203.82c.27-.3.52-.59.76-.91s.46-.65.67-1,.47-.69.67-1.05a0,0,0,0,1,.09,0,8.22,8.22,0,0,1-.48,1.15,7.59,7.59,0,0,1-.66,1,9.86,9.86,0,0,1-.77.94,3.18,3.18,0,0,1-.94.77.07.07,0,0,1-.09-.1A6.39,6.39,0,0,1,394.43,203.82Z" style="fill:#263238"></path><path d="M388.69,200.31a13.8,13.8,0,0,1,.85-1.16,14.39,14.39,0,0,1,1-1.07,13.7,13.7,0,0,1,2.25-1.77s.11,0,.07.07c-1.35,1.35-2.76,2.64-4.09,4C388.72,200.42,388.65,200.36,388.69,200.31Z" style="fill:#263238"></path><path d="M386.65,197.84a6.05,6.05,0,0,1,1-1.06,13.52,13.52,0,0,1,2.5-1.65c.06,0,.11,0,.06.08-.75.58-1.51,1.16-2.23,1.79a11.62,11.62,0,0,0-1,1c-.32.35-.55.76-.86,1.12,0,0-.07,0-.06,0A3.6,3.6,0,0,1,386.65,197.84Z" style="fill:#263238"></path><path d="M384,196.84a6,6,0,0,1,.88-1.06,7.65,7.65,0,0,1,2.13-1.47c.05,0,.09.05.05.09a14.5,14.5,0,0,0-2,1.68c-.31.31-.6.63-.89.95a11.63,11.63,0,0,1-.86,1s-.06,0,0,0A6.57,6.57,0,0,1,384,196.84Z" style="fill:#263238"></path><path d="M382.07,195.45q.45-.42.93-.81a3.59,3.59,0,0,1,1-.68c.06,0,.09,0,.05.09-.58.54-1.16,1.1-1.73,1.65a10.21,10.21,0,0,0-1.3,1.79s-.07,0-.06,0A3.84,3.84,0,0,1,382.07,195.45Z" style="fill:#263238"></path><path d="M379.74,195.14a6.34,6.34,0,0,1,1.94-1.43c.05,0,.1.06.05.09a7.78,7.78,0,0,0-1.75,1.54,11.08,11.08,0,0,0-1.32,1.92,0,0,0,0,1-.07,0A5.24,5.24,0,0,1,379.74,195.14Z" style="fill:#263238"></path><path d="M376.85,196.73a2.65,2.65,0,0,1,.23-.48,4.84,4.84,0,0,1,.61-.89,11.27,11.27,0,0,1,1.63-1.46c.05,0,.11,0,.06.08a8.25,8.25,0,0,0-1.51,1.5,6.31,6.31,0,0,0-.6.86l-.24.45a2.67,2.67,0,0,1-.22.45,0,0,0,0,1-.08,0A1.41,1.41,0,0,1,376.85,196.73Z" style="fill:#263238"></path><path d="M375,197a8.59,8.59,0,0,1,.5-.73,7.35,7.35,0,0,1,.59-.65c.22-.21.44-.42.65-.64a0,0,0,1,1,.07.07,5.6,5.6,0,0,0-.6.69l-.52.68-.52.69c-.18.23-.33.49-.52.7,0,0-.09,0-.07,0A3.84,3.84,0,0,1,375,197Z" style="fill:#263238"></path><path d="M389.64,246.49s7.58-16.46,18.87-19.16l-.08,8.7s-6.83.71-17.73,12.86Z" style="fill:#a6a6a6"></path><path d="M411.53,235.87a14.59,14.59,0,0,0-6.06,1.45,27.14,27.14,0,0,0-5.36,3.2,47.13,47.13,0,0,0-4.76,4.07l-2.19,2.25-2.09,2.35-.23.27-.3-.12a51.55,51.55,0,0,1-6.55-3.09,30.4,30.4,0,0,1-3.08-1.91c-1-.71-5.05-3.78-6.07-6.23,1.59,2.31,7.31,6.52,9.44,7.57,1.07.53,2.17,1,3.27,1.45s2.21.91,3.32,1.3l-.54.15,2.08-2.43c.73-.78,1.47-1.54,2.22-2.3s1.57-1.45,2.39-2.14,1.66-1.35,2.56-1.93a24.83,24.83,0,0,1,5.67-3,15.89,15.89,0,0,1,1.52-.5c.53-.12,1.05-.26,1.58-.34A9.44,9.44,0,0,1,411.53,235.87Z" style="fill:#263238"></path><path d="M415.28,241a30.76,30.76,0,0,1-3.58-2.25,32.11,32.11,0,0,1-3.27-2.68,30.83,30.83,0,0,1,3.58,2.26A32,32,0,0,1,415.28,241Z" style="fill:#263238"></path><path d="M394,243.25A63.57,63.57,0,0,1,396.12,254c.3,2.53.18,11.73-2.67,11.67s1.19-6.38,1.54-11.25-1.26-8.28-1.71-11.14Z" style="fill:#dbdbdb"></path><path d="M384.05,244.69a91.92,91.92,0,0,0-1.1,10.76c-.1,2.31.62,10.62,3.2,10.37s-1.5-5.68-2.15-10.07.5-8.47.71-11.08Z" style="fill:#dbdbdb"></path><rect x="360.25" y="279.71" width="2.57" height="63.79" transform="translate(43.15 667.17) rotate(-88.92)" style="fill:#455a64"></rect><rect x="374.49" y="294.22" width="2.57" height="35.3" transform="translate(56.85 681.68) rotate(-88.92)" style="fill:#a6a6a6"></rect><polygon points="359.18 312.84 303.28 311.78 296.1 273.67 352 274.73 359.18 312.84" style="fill:#a6a6a6"></polygon><polygon points="356.64 312.79 300.75 311.73 293.57 273.62 349.47 274.68 356.64 312.79" style="fill:#c7c7c7"></polygon><path d="M328.82,294.12a3.3,3.3,0,0,1-3.41,3.67,4.23,4.23,0,0,1-4-3.81,3.28,3.28,0,0,1,3.4-3.66A4.24,4.24,0,0,1,328.82,294.12Z" style="fill:#fff"></path></g><g id="freepik--character-1--inject-52"><path d="M100.53,296.48c6.65,7.55,31.54,29.93,37.86,29.55,6.57-.4,30.47-8.49,35.43-11.79,2.76-1.84-8.61-24.81-11.63-23s-22.17,10.84-24.83,11-27.67-15.79-36.26-18.57C86.3,278.89,97,292.42,100.53,296.48Z" style="fill:#ad6359"></path><path d="M183.68,308c-3.59,3.74-13.93,8.51-16.87,8.7s-11.63-17.12-10.32-19.84,14.38-14.37,19.62-15.06S187.4,304.12,183.68,308Z" style="fill:#ad6359"></path><path d="M168.26,284.46c.77,2.64,2.9,1.86,2.9,1.86s-4.76,2.4-4.32,5.41,4.64,1.75,4.94,1.67c-.25.13-4.57,2.45-3.81,5.42s4.81,1.22,5.07,1.1c-.2.19-2.78,2.83-1.69,5,1.87,3.66,8.65-2.91,12-2.71,0,0,.32,5.66.36,5.82,0,0,6.58-6.11,6.59-10.6a2.86,2.86,0,0,0-2.2-2.84s2.34-1.74,1.82-4.1c-.27-1.21-2.45-1.85-2.45-1.85a3.59,3.59,0,0,0,1.22-3.54c-.47-1.65-2.58-2-2.58-2s10.57-5.48,9.46-8.42c-1.92-5.07-23.88,7.92-26.06,6.94C168.39,281.06,167.92,283.32,168.26,284.46Z" style="fill:#ad6359"></path><path d="M185.75,282.91c.05,0,.06-.08,0-.08a25.49,25.49,0,0,0-14.8,3.52c-.14.09-.45.78-.29.7A41.51,41.51,0,0,1,185.75,282.91Z" style="fill:#263238"></path><path d="M187.51,288.55c.06,0,.05-.1,0-.1a24,24,0,0,0-15.9,4.84c-.16.13-.17.4,0,.27C174.81,291.35,182.76,289,187.51,288.55Z" style="fill:#263238"></path><path d="M172.81,300.28c4.48-3.34,9.58-4.9,15.05-5.76.07,0,0-.11,0-.12-2.79-.31-6.22.6-8.83,1.53a14.79,14.79,0,0,0-6.33,4.2C172.62,300.2,172.71,300.35,172.81,300.28Z" style="fill:#263238"></path><path d="M171.07,286.29c-.17.1.41.31.24.42-1.77,1.22-4.83,3.55-4.16,5.21.53,1.33,2.69,1.54,3.55,1.29l2.17-.62-1.82,1.34a9.19,9.19,0,0,0-2.11,2.11,3.3,3.3,0,0,0-.68,2.61,1.87,1.87,0,0,0,1.79,1.55,5.64,5.64,0,0,0,2.77-.67l2.4-1.19-1.87,1.9A8.47,8.47,0,0,0,172,302a3.56,3.56,0,0,0-.55,2,1.69,1.69,0,0,0,1,1.45,3.75,3.75,0,0,0,2.09-.07,30.18,30.18,0,0,0,4.3-1.73c.71-.33,1.42-.65,2.15-.94a5.35,5.35,0,0,1,2.28-.52,6,6,0,0,0-2.19.72c-.7.34-1.38.71-2.07,1.09a25.86,25.86,0,0,1-4.29,2,4.41,4.41,0,0,1-2.51.17,2.43,2.43,0,0,1-1.62-2.09,4.33,4.33,0,0,1,.62-2.48,9.38,9.38,0,0,1,1.46-2l.53.71a6.52,6.52,0,0,1-3.27.83,2.75,2.75,0,0,1-1.71-.69,3.06,3.06,0,0,1-.89-1.59,4.18,4.18,0,0,1,.86-3.31,10.26,10.26,0,0,1,2.36-2.29l.34.72c-1.1.28-3.54.31-4.63-1.65C165.27,289.56,170.14,286.74,171.07,286.29Z" style="fill:#263238"></path><path d="M156.49,296.85s3.19-14,7.15-16.79,13.9,1.32,17.29,3.4c4.67,2.87,2.14,5.93-.82,6.14-3.42.23-8.46-1.13-8.81-1.22,0,0,2,8.17-2.33,12.53S156.49,296.85,156.49,296.85Z" style="fill:#ad6359"></path><path d="M173.8,280.32a33.35,33.35,0,0,1,6.13,2.25c1.45.73,3.17,1.61,3.82,3.28,1.48,6.19-9.39,4.24-12.62,2.95l.59-.56a13,13,0,0,1,.5,3.12,13.24,13.24,0,0,1-2.59,8.78,14.62,14.62,0,0,0,1.23-2.78,15,15,0,0,0-.25-9.67,24.21,24.21,0,0,0,7.07,1.41c2.83.34,7.33-.68,4.51-4.19-2.32-2.14-5.5-3.31-8.39-4.59Z" style="fill:#263238"></path><path d="M157.15,293l10.94,28.36s-23.18,6.58-30.56,6-32.45-24.26-40.35-34-3.54-13.65,8-8.93,31,16.65,32.6,16.4S157.15,293,157.15,293Z" style="fill:#E16A73"></path><path d="M156.1,309.37c-.74-2-3.61-10.2-4.17-12.28a0,0,0,0,1,.06,0c.92,1.88,4,9.85,4.73,11.89a119.29,119.29,0,0,1,4.06,12.33c0,.07-.1.13-.13.05C158.86,317.45,157.54,313.38,156.1,309.37Z" style="fill:#263238"></path><path d="M141.93,327a18,18,0,0,1-4.4.38c-7.37-.61-32.45-24.26-40.35-34-6.91-8.53-4.45-12.58,4-10.31Z" style="opacity:0.1"></path><path d="M102.36,285.28c4.9,3.21,13.26,16.82,17,32.77a135.8,135.8,0,0,1,2.09,13.49c1.93,16.59,4.59,35.2,4.69,41.37.13,8.22-14.68,22-21.66,19.94s-18.67.61-4.67-45.73c3.67-12.18,8.24-39,4.67-53.93C102.82,286.41,102.36,285.28,102.36,285.28Z" style="fill:#E16A73"></path><g style="opacity:0.1"><path d="M102.36,285.28c4.9,3.21,13.26,16.82,17,32.77a135.8,135.8,0,0,1,2.09,13.49c1.93,16.59,4.59,35.2,4.69,41.37.13,8.22-14.68,22-21.66,19.94s-18.67.61-4.67-45.73c3.67-12.18,8.24-39,4.67-53.93C102.82,286.41,102.36,285.28,102.36,285.28Z"></path></g><path d="M168.42,491c-2.28-.57-56.14-34.92-57.37-37.53-.47-1,4.08-9.12,9.85-18.79,1.24-2.09,2.54-4.24,3.87-6.42,8.63-14.14,18.12-28.94,18.12-28.94L179,422.18l-19.11,28.31-4.19,6.22s14.74,22.37,15.78,25.38S170.71,491.56,168.42,491Z" style="fill:#ad6359"></path><path d="M168.42,491c-2.28-.57-56.14-34.91-57.37-37.52-.41-.88,3.07-7.3,7.86-15.45h0c2,3.35,33,32.12,43.48,35.13,4.29,1.23-2-9.28-2.32-9.73l0,0c4.42,6.85,10.71,16.72,11.37,18.65C172.49,485.08,170.71,491.56,168.42,491Z" style="fill:#263238"></path><path d="M160.66,464.29s-4.65-4.41-14-1" style="fill:#263238"></path><path d="M205,377.41c-4.07,17.06-42,73.13-42,73.13l-38.5-25.18,27.91-40.26S98.22,389.66,78,380.29c-21.61-10-17.49-36.17-17.49-36.17l53.64-4.45s1.23,5.07,7.25,4.82c20.74-.87,48.92.91,59.74,2.48C195.07,349,208.69,361.76,205,377.41Z" style="fill:#455a64"></path><path d="M165.08,371.14a41.84,41.84,0,0,0-3.63,3.78c-1.25,1.32-2.51,2.63-3.75,4l0,0c.24-.4.47-.81.72-1.2.84-1.37,1.54-2.79,2.5-4.07a.07.07,0,0,0-.12-.09c-1,1.27-2.09,2.46-2.95,3.82-.41.63-.8,1.28-1.17,1.94-.21.37-.41.73-.6,1.1a5.2,5.2,0,0,0-.26.53c-.56.62-1.12,1.24-1.66,1.87-1.2,1.41-2.29,2.91-3.5,4.31-.07.07,0,.16.12.09,1.22-1.3,2.56-2.49,3.79-3.78s2.46-2.67,3.65-4,2.3-2.69,3.46-4a43.37,43.37,0,0,0,3.52-4.15C165.19,371.17,165.13,371.1,165.08,371.14Z" style="fill:#263238"></path><path d="M165.82,441.4c-1-.82-2.08-1.57-3.12-2.33s-2.07-1.51-3.1-2.25c-2.13-1.53-4.29-3-6.44-4.51-4.32-3-8.69-5.93-13-8.87-2.44-1.65-4.92-3.25-7.38-4.88,0,0-.11,0-.06.08,4.17,3.08,8.35,6.14,12.59,9.16s8.61,6,13,8.95q1.81,1.22,3.68,2.39c1.25.8,2.49,1.63,3.79,2.36C165.79,441.53,165.87,441.44,165.82,441.4Z" style="fill:#263238"></path><path d="M67.78,346a27.55,27.55,0,0,0,5.34,19.59,26.92,26.92,0,0,0,7.77,6.76,33.11,33.11,0,0,0,9.69,3.52,132.47,132.47,0,0,0,20.64,2.57q10.41.55,20.83.12a165.09,165.09,0,0,0,20.72-2q2.56-.44,5.09-1c.84-.21,1.68-.43,2.5-.68a12.92,12.92,0,0,1,2.59-.65,3.36,3.36,0,0,1,1.43.12,1.56,1.56,0,0,1,1.05,1.13,2.4,2.4,0,0,1,.06.75,2.3,2.3,0,0,1-.2.73c-.18.42-.39.8-.6,1.19-.87,1.53-1.81,3-2.75,4.46-7.66,11.63-15.82,22.91-24,34.17q6-8.55,11.88-17.16c3.94-5.73,7.88-11.47,11.62-17.32.93-1.47,1.85-2.95,2.69-4.45.2-.38.4-.76.56-1.14a1.26,1.26,0,0,0,.15-.52,1.64,1.64,0,0,0,0-.55c-.13-.7-1-.86-1.8-.77a12.42,12.42,0,0,0-2.46.64c-.84.25-1.68.48-2.53.69-1.7.42-3.41.76-5.13,1.06a163.45,163.45,0,0,1-20.81,2c-7,.26-13.94.21-20.9-.19a123.72,123.72,0,0,1-20.72-2.69,33.23,33.23,0,0,1-9.81-3.67,27.15,27.15,0,0,1-7.81-6.94,26,26,0,0,1-4.42-9.43A28.38,28.38,0,0,1,67.78,346Z" style="fill:#263238"></path><path d="M117.29,493c-2.11-1-47.64-45.84-48.3-48.65-.25-1.06,5.89-8.07,13.54-16.34,1.66-1.78,3.38-3.61,5.13-5.46,11.39-12,23.75-24.54,23.75-24.54L142,427.93l-24.58,23.71-5.4,5.21s9.76,24.95,10.15,28.11S119.41,494.06,117.29,493Z" style="fill:#ad6359"></path><path d="M117.29,493c-2.11-1-47.64-45.84-48.3-48.65-.22-.94,4.53-6.5,10.9-13.47h0c1.28,3.7,25.57,38.28,35.2,43.41,4,2.1-.07-9.5-.24-10v0c2.91,7.62,7,18.59,7.25,20.61C122.5,488.1,119.41,494.06,117.29,493Z" style="fill:#263238"></path><path d="M115.26,465.3s-3.63-5.28-13.5-3.91" style="fill:#263238"></path><path d="M180.83,380.57c-4.07,17.05-51.85,62.56-57.37,67.77l-1.25,1.19L89.76,418.79l.46-.48,26.4-27.07S77,403.09,61.13,378.32c-6.32-9.86-.64-34.2-.64-34.2l43.08-3.4s.47,7.37,6.49,7.12c20.74-.87,37.06-1.82,47.88-.26C171.89,349.61,184.57,364.92,180.83,380.57Z" style="fill:#455a64"></path><path d="M111.23,347.79c13.35-.8,26.73-1.43,40.12-.93,1.68.07,3.35.18,5,.34a33,33,0,0,1,5,.81,15.93,15.93,0,0,1,2.39.91c.77.35,1.53.72,2.27,1.12a34.68,34.68,0,0,1,4.26,2.74,30.79,30.79,0,0,1,7,7.25,25.44,25.44,0,0,1,4.54,14.34c0,.42,0,.85,0,1.27a11.13,11.13,0,0,1-.08,1.28,17.63,17.63,0,0,1-.47,2.51,40,40,0,0,1-4.08,9.24A125.51,125.51,0,0,1,165.5,405c-4.27,5.16-8.76,10.13-13.36,15s-9.37,9.56-14.18,14.2c4.72-4.73,9.38-9.53,13.91-14.45s9-9.91,13.18-15.1a130.37,130.37,0,0,0,11.57-16.3,39,39,0,0,0,4-9.08,17.94,17.94,0,0,0,.45-2.41c.07-.8.08-1.64.07-2.46a25.28,25.28,0,0,0-.54-4.91,24.9,24.9,0,0,0-3.86-9,30,30,0,0,0-6.84-7.12,33.29,33.29,0,0,0-4.17-2.69c-.72-.41-1.46-.77-2.22-1.12a16.85,16.85,0,0,0-2.29-.88,33,33,0,0,0-4.89-.81c-1.65-.18-3.32-.3-5-.39-6.67-.35-13.36-.32-20.05-.23S117.91,347.49,111.23,347.79Z" style="fill:#263238"></path><path d="M131,375.18a43.09,43.09,0,0,0-3.63,3.77c-1.24,1.33-2.51,2.64-3.75,4l0,0c.24-.4.47-.8.72-1.2.84-1.36,1.55-2.78,2.51-4.07,0-.07-.07-.17-.13-.09-1,1.27-2.09,2.47-3,3.82q-.61,1-1.17,1.95c-.21.36-.41.72-.6,1.1a5.23,5.23,0,0,0-.26.53c-.56.62-1.11,1.24-1.65,1.87-1.21,1.41-2.29,2.91-3.51,4.3a.08.08,0,0,0,.12.1c1.22-1.31,2.56-2.5,3.79-3.79s2.46-2.67,3.65-4,2.3-2.69,3.46-4a42.06,42.06,0,0,0,3.52-4.14C131.13,375.21,131.07,375.14,131,375.18Z" style="fill:#263238"></path><path d="M126.76,441.89c-.84-1-1.78-1.89-2.68-2.82s-1.78-1.83-2.68-2.74c-1.84-1.86-3.72-3.69-5.59-5.52-3.76-3.68-7.56-7.31-11.37-10.95-2.13-2-4.3-4-6.45-6.05,0,0-.12,0-.08.07,3.6,3.74,7.21,7.46,10.88,11.14s7.47,7.4,11.3,11q1.59,1.5,3.23,3c1.1,1,2.18,2,3.34,3C126.72,442,126.81,442,126.76,441.89Z" style="fill:#263238"></path><path d="M66.23,346.69A43.29,43.29,0,0,0,65,358.08a30.42,30.42,0,0,0,2.26,11.13,20.18,20.18,0,0,0,7,8.72,24.71,24.71,0,0,0,10.56,3.9,58.68,58.68,0,0,0,11.4.51,106.31,106.31,0,0,0,11.4-1.15,164.68,164.68,0,0,0,22.38-5l.27-.09.12.25a8.16,8.16,0,0,1,.7,3,9.45,9.45,0,0,1-.28,3,11.46,11.46,0,0,1-1.14,2.78,21.44,21.44,0,0,1-1.79,2.38c-2.55,3-5.27,5.78-8,8.58s-5.51,5.53-8.31,8.25-5.62,5.42-8.46,8.1q4.17-4.11,8.28-8.28t8.17-8.38c2.69-2.82,5.38-5.66,7.87-8.64a19.38,19.38,0,0,0,1.7-2.32,11.25,11.25,0,0,0,1.06-2.62,8.58,8.58,0,0,0-.39-5.51l.39.17a164.31,164.31,0,0,1-22.46,5.08A110.11,110.11,0,0,1,96.3,383a60.16,60.16,0,0,1-11.53-.56A24.78,24.78,0,0,1,74,378.39a20.7,20.7,0,0,1-7.12-9,29.78,29.78,0,0,1-2.1-11.3A43.78,43.78,0,0,1,66.23,346.69Z" style="fill:#263238"></path><path d="M84.64,346.81c-.47,2-1,4-1.68,5.94a14.41,14.41,0,0,1-2.4,4.95,11.35,11.35,0,0,1-4.27,2.92,26.34,26.34,0,0,1-2.86,1,20,20,0,0,0-2.93,1,.2.2,0,0,0,.06.38,13.12,13.12,0,0,0,3.24-.34,18.6,18.6,0,0,0,3-.83,11.18,11.18,0,0,0,4.66-3.21,13.43,13.43,0,0,0,2.4-5.38,33.53,33.53,0,0,0,1-6.38A.14.14,0,0,0,84.64,346.81Z" style="fill:#263238"></path><path d="M59.63,345.64l56.6,0-3.42-21.31s4.89-5.95,4-12.41c-1-7.07-13.75-25-14.82-26-4.31-4-8.26-5.64-12.07-3C76.61,292,59.63,345.64,59.63,345.64Z" style="fill:#ebebeb"></path><path d="M105.33,321.94a51.73,51.73,0,0,0-7.52,1.24c-1.22.31-2.42.68-3.62,1.08-.6.2-1.2.37-1.81.55a8.53,8.53,0,0,1-1.93.36,0,0,0,1,0,0,.09,14.44,14.44,0,0,0,1.86,0,13.31,13.31,0,0,0,1.78-.34c1.25-.3,2.47-.67,3.72-1,2.5-.64,5-1.29,7.55-1.75C105.48,322.13,105.45,321.93,105.33,321.94Z" style="fill:#263238"></path><path d="M111.59,324.19a55,55,0,0,0-6.28-.3c-1,0-2.09.08-3.14.18l-1.49.17c-.55.07-1.09.21-1.63.28a0,0,0,0,0,0,.09c.51-.05,1,0,1.56,0l1.57-.05,3.14-.07c2.09-.07,4.17-.12,6.27-.12C111.7,324.36,111.69,324.2,111.59,324.19Z" style="fill:#263238"></path><path d="M89.77,263.29a4.08,4.08,0,0,0,6.17-4.08,3.74,3.74,0,0,0,4.54-.61,3.57,3.57,0,0,0,0-4.76h0a3.67,3.67,0,0,1-.22,4.54,3.29,3.29,0,0,1-3.59.77A4.54,4.54,0,0,0,100,257.7a3.49,3.49,0,0,0,.47-3.84,5.12,5.12,0,0,0,2.94-3.56,3.48,3.48,0,0,0-1.48-3.52,3.92,3.92,0,0,0-1.65-7,3.28,3.28,0,0,0-1-5.44,2.21,2.21,0,0,0,.17-2.38,3.7,3.7,0,0,0-2.3-1.66,2.61,2.61,0,0,0-1-2.32,2.4,2.4,0,0,0-3.1.24,6.54,6.54,0,0,0-3.73-2.83,3.42,3.42,0,0,0-3.56,1.29,4.74,4.74,0,0,0-7.09.31,3.34,3.34,0,0,0-3.32.07,5,5,0,0,0-1.75,1.62,2.5,2.5,0,0,0-2.86.57A3.3,3.3,0,0,0,70,232a2,2,0,0,1-.54.65,4.34,4.34,0,0,0-1.66,3.75,3,3,0,0,0-1.51,4.17,3.33,3.33,0,0,0-.51,4.64,4.83,4.83,0,0,0-1.51,3.74,2.8,2.8,0,0,0,1.65,2.61,1.7,1.7,0,0,0,.3,2.24,4.14,4.14,0,0,0,.76.56,3.74,3.74,0,0,1,1,.65,2.71,2.71,0,0,1,.3,1.13,3.55,3.55,0,0,0,.27.75,4.39,4.39,0,0,0,5,2.31,3.55,3.55,0,0,0,3.06,2.38,7.43,7.43,0,0,0,1.33.08,2,2,0,0,1,1.14.26c.21.15.4.34.62.48a3,3,0,0,0,2.41.23C83.16,266.31,87.85,266.24,89.77,263.29ZM70.7,229.85a2.64,2.64,0,0,1,2.86-1.06l-.06.13s-.37,0-.54,0a3.46,3.46,0,0,0-.93.29,3.4,3.4,0,0,0-1.47,1.34,3.57,3.57,0,0,0-.35.83l0,.11A3.19,3.19,0,0,1,70.7,229.85Zm25.39-1a2.53,2.53,0,0,0-2.87-.46.18.18,0,0,1,0-.07,2.25,2.25,0,0,1,2.87-.18,2.2,2.2,0,0,1,.83,2.05h0A2.77,2.77,0,0,0,96.09,228.88Zm-13.81,33.7h0a4.58,4.58,0,0,0,6.16,1.64C86.27,265.65,83.52,265.63,82.28,262.58Z" style="fill:#263238"></path><path d="M90.56,286.36c.32,1,5.8,7.43,10.55,6.85,1.55-.19.89-8.68.89-8.68l.09-.64,1.32-8.93L92.6,269.1l-1.55-.76s-.2,2.46-.42,5.54l0,.43c0,.18,0,.34,0,.5,0,.46-.07.93-.1,1.4s0,.7,0,1.08,0,.74-.05,1.11A57,57,0,0,0,90.56,286.36Z" style="fill:#ad6359"></path><path d="M90.63,273.88a18.11,18.11,0,0,0,11.46,10l1.32-8.93L92.6,269.1l-1.55-.76S90.85,270.8,90.63,273.88Z" style="fill:#263238"></path><path d="M114.56,260.94c2.76,15.6-6.27,19-9.63,19.6-3.06.54-13.52,2-17.89-13.24s2-21.45,8.94-23.05S111.79,245.34,114.56,260.94Z" style="fill:#ad6359"></path><path d="M111.39,258.17a10,10,0,0,1-1.1,0,1.79,1.79,0,0,1-1.12-.25.58.58,0,0,1-.12-.69,1.4,1.4,0,0,1,1.32-.56,2,2,0,0,1,1.4.5A.6.6,0,0,1,111.39,258.17Z" style="fill:#263238"></path><path d="M100.56,259.75c.36-.11.68-.27,1-.41a1.8,1.8,0,0,0,1-.62.56.56,0,0,0-.12-.68A1.38,1.38,0,0,0,101,258a2.08,2.08,0,0,0-1.16.94A.61.61,0,0,0,100.56,259.75Z" style="fill:#263238"></path><path d="M103.37,262.41s-.07.06-.06.11c.28,1.05.42,2.31-.46,2.88,0,0,0,.07,0,.06C104,265,103.81,263.36,103.37,262.41Z" style="fill:#263238"></path><path d="M102.17,261.51c-1.74.27-1.08,3.73.53,3.48S103.63,261.29,102.17,261.51Z" style="fill:#263238"></path><path d="M101.53,261.83c-.27.25-.5.65-.86.76s-.8-.18-1.14-.48c0,0-.06,0,0,.05.12.67.5,1.3,1.23,1.26s1-.71,1.06-1.4C101.77,261.89,101.63,261.72,101.53,261.83Z" style="fill:#263238"></path><path d="M109.54,260.79s.09,0,.09.08c.13,1.09.46,2.31,1.49,2.52,0,0,0,.06,0,.06C109.9,263.46,109.48,261.84,109.54,260.79Z" style="fill:#263238"></path><path d="M110.33,259.52c1.72-.39,2.37,3.07.78,3.43S108.89,259.85,110.33,259.52Z" style="fill:#263238"></path><path d="M111.09,259.61c.31.13.65.42,1,.38s.59-.48.76-.88c0-.05,0,0,.06,0,.15.66.06,1.39-.55,1.64s-1.09-.26-1.38-.89C110.91,259.76,111,259.56,111.09,259.61Z" style="fill:#263238"></path><path d="M105.28,271.37c.29.22.59.54,1,.53a2.88,2.88,0,0,0,1.14-.4,0,0,0,0,1,0,.05,1.46,1.46,0,0,1-1.31.74,1.17,1.17,0,0,1-1-.86A.06.06,0,0,1,105.28,271.37Z" style="fill:#263238"></path><path d="M109.12,266.72s.49,1.57.62,2.32c0,.08-.17.14-.42.2h0a3.64,3.64,0,0,1-3.72-.76c-.07-.06,0-.16.09-.12a5.54,5.54,0,0,0,3.45.38c0-.22-.94-2.65-.82-2.68a6.56,6.56,0,0,1,1.79.1c-.94-3.3-2.39-6.42-3.27-9.72a.1.1,0,0,1,.19-.08,55.66,55.66,0,0,1,4,10.31C111.1,267.1,109.44,266.8,109.12,266.72Z" style="fill:#263238"></path><path d="M109.2,269a4.43,4.43,0,0,1-1.42,1.74,2,2,0,0,1-1.16.34c-.9,0-1.1-.8-1.1-1.5a5.06,5.06,0,0,1,.14-1.12A5.71,5.71,0,0,0,109.2,269Z" style="fill:#263238"></path><path d="M107.78,270.71a2,2,0,0,1-1.16.34c-.9,0-1.1-.8-1.1-1.5A2,2,0,0,1,107.78,270.71Z" style="fill:#ff9cbd"></path><path d="M87.89,266.83c2.56-.15,2.43-5.56,2.43-5.56s5.17-.68,5.87-8.34a11.48,11.48,0,0,1-1.46,6.45s9-2.19,11.79-10.33c0,0-1,4.09-2.25,5.66a10.79,10.79,0,0,0,5.12-4.93S111.58,254,113,255c0,0-2.52-15.89-17.06-12.21,0,0-9.17,1.86-11.5,9.63S87.89,266.83,87.89,266.83Z" style="fill:#263238"></path><path d="M90.68,267.31s-3.88-4.61-6-3.19,1.1,8.34,3.82,9.08a2.66,2.66,0,0,0,3.44-1.75Z" style="fill:#ad6359"></path><path d="M85.65,266.08a0,0,0,0,0,0,.07c1.91.58,3,2.2,3.86,3.91a1.47,1.47,0,0,0-2.24-.2s0,.1.06.09a1.64,1.64,0,0,1,1.86.41,7.62,7.62,0,0,1,1,1.39c.11.15.39,0,.31-.15v0C90.3,269.21,88.19,266.09,85.65,266.08Z" style="fill:#263238"></path><path d="M87.63,272.72c.1.73-2.31-1.51-2.46-1.87s-1.71-1.28-2.17-2a17.7,17.7,0,0,1-1.53-3.22c-.12-.5-1.19-1.68-1.28-2.58s-.58-8.94,4.23-14.87S94,241.42,94,241.42a33.12,33.12,0,0,1,7.22-1.07c4-.14,10.56,8.46,10.6,8.66a3.15,3.15,0,0,0,.08,1.39c.24.53.9,1,.65,1.6s.68,1.84.73,2.41-.09.73,0,1.1-2.74-9.4-15.11-11.61C98.19,243.9,85.31,257.05,87.63,272.72Z" style="fill:#E16A73"></path><path d="M113.27,255.41a.38.38,0,0,0,0,.1Z" style="fill:#E16A73"></path><path d="M113.27,255.41a.38.38,0,0,0,0,.1Z" style="fill:#E16A73"></path><path d="M107.25,244.33a1,1,0,0,1,.41-.07h0c.35.34.68.68,1,1h0a1,1,0,1,1-1.41-.94Zm-5.77.4c.67.22,1.31.47,1.91.73a1,1,0,0,0-1.31-1.39A1,1,0,0,0,101.48,244.73Zm7.45,4.36a18,18,0,0,1,1.37,1.43,1,1,0,0,0-.89-1.84A1,1,0,0,0,108.93,249.09Zm-22.41-3.18a1,1,0,0,0,1.83-.93,1,1,0,0,0-.31-.41C87.55,245,87,245.41,86.52,245.91Zm1.11,8.6a1,1,0,1,0,.57-1.34A1,1,0,0,0,87.63,254.51Zm11-13.35a1,1,0,0,0,1.34.56,1,1,0,0,0,.56-1.34h0c-.68,0-1.33.1-1.94.17h0A1.07,1.07,0,0,0,98.63,241.16Zm-5.27,2.89a1,1,0,1,0,.56-1.33A1,1,0,0,0,93.36,244.05ZM91,249.28a1,1,0,1,0,1.9-.77,1,1,0,0,0-1.9.77Zm-7.52,1.95a1,1,0,0,0,1.33.57,1,1,0,1,0-1.33-.57Zm.75,7.78a1,1,0,1,0,.56-1.34A1,1,0,0,0,84.19,259Zm2,11.41a1,1,0,0,0,1.22.61c-.06-.67-.09-1.34-.09-2a1,1,0,0,0-.57.05A1,1,0,0,0,86.22,270.42ZM87.79,262a1,1,0,0,0,.32.42c.14-.61.3-1.22.48-1.82a.62.62,0,0,0-.23.07A1,1,0,0,0,87.79,262ZM80.56,257a1.06,1.06,0,0,0,.82,0,1,1,0,0,0,.57-1.34,1,1,0,0,0-1-.64C80.82,255.74,80.68,256.4,80.56,257Zm3,8a1,1,0,1,0,.56-1.34A1,1,0,0,0,83.51,265Zm-1.67,1.62c.21.46.47,1,.71,1.45a1.06,1.06,0,0,0,0-.84A1,1,0,0,0,81.84,266.64Zm-1.68-3.94a1,1,0,0,0,.54-.06,1,1,0,0,0,.57-1.34,1,1,0,0,0-1.12-.63C80.12,261.57,80.14,262.27,80.16,262.7Z" style="fill:#fff;opacity:0.30000000000000004"></path><path d="M85.17,270.85a11.3,11.3,0,0,1-.27-2.16c0-.73-.07-1.46-.08-2.19,0-1.45-.06-2.91,0-4.36,0-.36,0-.73,0-1.08a4.34,4.34,0,0,1,.29-1c.26-.67.56-1.33.86-2s.62-1.32.93-2l1-2c-.73,1.26-1.42,2.55-2.07,3.86-.32.65-.62,1.32-.9,2a5.31,5.31,0,0,0-.32,1.07c0,.37,0,.74-.06,1.1,0,1.47,0,2.92.07,4.38,0,.73.09,1.46.16,2.19,0,.36.08.72.14,1.08A5.73,5.73,0,0,0,85.17,270.85Z" style="fill:#050400;opacity:0.1"></path><path d="M84.31,255.86A18.16,18.16,0,0,0,83,258.1a17.51,17.51,0,0,0-1,2.4,12.44,12.44,0,0,0-.6,2.55,7,7,0,0,0,.13,2.61l-.06-.65a1.15,1.15,0,0,1,0-.32v-.33c0-.1,0-.21,0-.32l0-.32a4.66,4.66,0,0,1,.08-.64l.12-.63.15-.63c0-.21.12-.41.18-.62s.12-.41.2-.61c.27-.82.61-1.62,1-2.41q.27-.58.57-1.17C83.9,256.62,84.1,256.24,84.31,255.86Z" style="fill:#050400;opacity:0.1"></path><path d="M111.69,250a13.89,13.89,0,0,0-1.59-1.91c-.57-.6-1.17-1.17-1.77-1.74a22.61,22.61,0,0,0-1.87-1.64,8.43,8.43,0,0,0-2.21-1.14c.37.19.74.38,1.09.6a7.78,7.78,0,0,1,1,.7c.32.25.62.54.92.82l.9.84,1.8,1.7c.3.28.59.57.88.86A9.15,9.15,0,0,1,111.69,250Z" style="fill:#050400;opacity:0.1"></path><path d="M112.49,252.38a12.47,12.47,0,0,0-1-1.5,16.75,16.75,0,0,0-1.12-1.4c-.21-.22-.42-.43-.65-.63l-.69-.56-.71-.55c-.24-.18-.47-.36-.72-.53.21.22.43.42.64.63l.66.6.66.59c.22.19.42.41.62.62.4.44.78.9,1.16,1.35l.57.68Z" style="fill:#050400;opacity:0.1"></path><path d="M85.43,247c2.1.65,6.91,2.09,7.95,1.9a7.14,7.14,0,0,0,1-.31,38.9,38.9,0,0,1,3.77-4.72,22.77,22.77,0,0,1,4.21,1.15,21.56,21.56,0,0,0,2.92-2.86,7.14,7.14,0,0,0-4.13-1.85A33.85,33.85,0,0,0,94,241.42S89.87,242.16,85.43,247Z" style="fill:#050400;opacity:0.1"></path><path d="M97.26,241.77s3.53-5.61,9.26-6.19c0,0-.28,5.67-2.31,7.52-1,.92-5.5,1.26-6,.51A10.08,10.08,0,0,1,97.26,241.77Z" style="fill:#E16A73"></path><path d="M103.32,236.47a1,1,0,0,1-.64,1.08,1,1,0,0,1-1-.16A12.14,12.14,0,0,1,103.32,236.47Zm1.36,4.38a1,1,0,0,0,.63.58,12.34,12.34,0,0,0,.63-2,1,1,0,0,0-1.26,1.37Zm-6.05.31a1,1,0,0,0,1.91-.78,1,1,0,0,0-1.34-.56A1,1,0,0,0,98.63,241.16Z" style="fill:#fff;opacity:0.30000000000000004"></path><path d="M97.26,241.77a10.08,10.08,0,0,0,.93,1.84.15.15,0,0,0,.09.08s.07.06.12.09l.12,0A6.11,6.11,0,0,0,101,244a13.07,13.07,0,0,0-.59-2.47,3.73,3.73,0,0,0-1.69-1.58A14.27,14.27,0,0,0,97.26,241.77Z" style="fill:#050400;opacity:0.1"></path><path d="M95.85,242.54s-8-1.32-11.82.37c0,0,2,4.18,6,5.25,1.79.48,7.06-2.72,6.78-3.66A7.89,7.89,0,0,0,95.85,242.54Z" style="fill:#E16A73"></path><path d="M87,244.41a1,1,0,1,1-.57,1.34A1,1,0,0,1,87,244.41Zm6.35-.36a1,1,0,1,0,.56-1.33A1,1,0,0,0,93.36,244.05Zm-2.1,4a6.62,6.62,0,0,0,.78-.22,1,1,0,0,0-.51.07A1.17,1.17,0,0,0,91.26,248.1Z" style="fill:#fff;opacity:0.30000000000000004"></path><path d="M94,242.3a4.61,4.61,0,0,0,.11,2.64,4.06,4.06,0,0,0,1,1.32c1-.7,1.76-1.4,1.66-1.76a8,8,0,0,0-1-2S95.14,242.41,94,242.3Z" style="fill:#050400;opacity:0.1"></path><path d="M95,244.33a2.64,2.64,0,0,0,3.53,1.16A2.62,2.62,0,1,0,95,244.33Z" style="fill:#E16A73"></path><path d="M91,282.31c-2.36,5.19-2.19,21.29-1.12,34.28s5.86,52.71,6,60.93-33.36,36.94-40.34,34.91-9.85-22.66,4.14-69c3.68-12.18,15-42.48,24.24-54.71C89.23,281.66,91,282.31,91,282.31Z" style="fill:#E16A73"></path><g style="opacity:0.1"><path d="M89.09,350c-1.74,1.16-3.47,2.37-5.11,3.66s-3.06,2.4-4.65,3.52a40.36,40.36,0,0,1-4.86,3,24,24,0,0,1-5.43,2c-.07,0-.08.13,0,.13,6.13.09,11.56-4.13,15.95-8,1.48-1.29,2.92-2.66,4.31-4A.17.17,0,1,0,89.09,350Z"></path><path d="M88.93,352.61a45.92,45.92,0,0,1-6.59,6,37,37,0,0,1-7.67,4.24,50.93,50.93,0,0,1-4.82,1.69.08.08,0,0,0,0,.16,25.49,25.49,0,0,0,16-8,20.9,20.9,0,0,0,3.15-4.1C89.08,352.61,89,352.55,88.93,352.61Z"></path><path d="M88.74,355.89a119.11,119.11,0,0,1-1.25,12.92,11.06,11.06,0,0,1-1.55,4,14,14,0,0,1-6.9,4.68c-2.4.82-5.42,1.09-7.53-.57-1.28-1-1.46-2.68-1.68-4.19a36.22,36.22,0,0,1-.42-5.6.07.07,0,0,0-.13,0c-.09,1.7-.15,3.4-.08,5.1,0,1.53,0,3.24.87,4.58,1.51,2.4,4.68,2.88,7.27,2.47a14.31,14.31,0,0,0,4.56-1.63A16.16,16.16,0,0,0,85.62,375a11.7,11.7,0,0,0,2.32-3.79c.92-2.11,1.46-11.37.9-15.33C88.83,355.83,88.74,355.82,88.74,355.89Z"></path></g><path d="M95.34,343.48c.11.72,12.09,9.31,21,15.48,5.05,3.51,9.1,6.24,9.42,6.32.89.23,34.22-7.71,34.35-7.7s.1.74.47.72a50.34,50.34,0,0,0,6-2.13c.12-.23.19-.88.42-1s29.81-9.58,29.81-10.26-36-16.92-37.27-16.72c-8.44,1.28-18,4.89-22.82,6.84-1.89.77-3,1.28-3,1.28C115.85,336.72,95.17,342.36,95.34,343.48Z" style="fill:#E16A73"></path><path d="M163.25,356.14a46.65,46.65,0,0,1,15.6-6.53,93.24,93.24,0,0,0,17-5.68l-36.29-15.72s-21.6,4.55-25.09,8.66a99,99,0,0,0-16.35.54,140.89,140.89,0,0,0-16.6,3.73c-2.68.78-5,1.62-5,1.62S125.79,363.91,126.3,364s11.52-2.36,15.64-3.5C147,359.05,155,356.6,163.25,356.14Z" style="fill:#ebebeb"></path><path d="M127.64,362a71.28,71.28,0,0,0,15-4.13c4.29-1.66,8.67-3.42,13.56-3.73a17.47,17.47,0,0,1,6.71.75l.07-.08s-.07,0-.05-.06c2-3.34,6.57-5.51,11.08-6.74,5.59-1.52,11.56-1.92,17.2-3.29,0,0,0,0,0,0-9.59,2.39-22.62,2.35-28,9.82,6.81-6.61,19.81-6.11,29-9.87,0,0,0,0,0,0C183,348.6,169.74,348,163,354.9h0s0,.07,0,.05h0s-.11,0-.09,0c-5.79-1.7-11.87-.12-17.24,1.89-2.9,1.09-5.73,2.27-8.74,3.18a65.4,65.4,0,0,1-9.23,2.08C127.59,362.09,127.56,362,127.64,362Z" style="fill:#dbdbdb"></path><path d="M163.12,355.17l0,0a0,0,0,0,1,0,0l.12-.09a12.78,12.78,0,0,1,4-2.73,58.13,58.13,0,0,1,6.2-2.18c2-.61,4.16-1,6.27-1.45q3.71-.76,7.29-1.8s0,0,0,0c-2,.6-4.12,1.14-6.22,1.61-2.25.5-4.54.9-6.73,1.52-2,.56-4,1.26-5.88,2a13.56,13.56,0,0,0-4.08,2.39,22.85,22.85,0,0,1,6.07-2.89c3-1,6.19-1.74,9.34-2.45h0c-3.05.71-6.13,1.46-9.06,2.42a22,22,0,0,0-7.1,3.59l-.17.16S163.08,355.21,163.12,355.17Z" style="fill:#dbdbdb"></path><path d="M131.24,361.78c2.79-.69,5.6-1.33,8.35-2.13s5.15-1.71,7.72-2.57a41.84,41.84,0,0,1,7.61-1.95,37.64,37.64,0,0,1,8.08-.05s0,0,0,0a43.21,43.21,0,0,0-8.66.2,47.18,47.18,0,0,0-7.84,2.14c-2.47.85-4.91,1.73-7.46,2.45s-5.17,1.36-7.79,1.94C131.21,361.83,131.2,361.79,131.24,361.78Z" style="fill:#dbdbdb"></path><path d="M138.89,360.43c4.14-.91,8-2.45,12-3.53a52,52,0,0,1,12.18-1.6s0,0,0,0a55.12,55.12,0,0,0-13,1.86c-3.75,1.06-7.32,2.44-11.19,3.25C138.88,360.45,138.87,360.43,138.89,360.43Z" style="fill:#dbdbdb"></path><path d="M137.31,361.29c4.51-.63,8.44-2.48,12.65-3.76a51,51,0,0,1,12.74-2.16s0,0,0,0a54.88,54.88,0,0,0-13.6,2.44c-3.89,1.25-7.58,2.93-11.79,3.49C137.29,361.31,137.29,361.29,137.31,361.29Z" style="fill:#dbdbdb"></path><path d="M95.76,340l30.92,22.18s8.25-1.8,11.95-3.39,13.72-8,24.25-4.09h0s2.5-5.31,10-7.43,16.52-2.14,22.11-4.41c0,0-27.36-11.73-35.69-15.22a67.1,67.1,0,0,1-7.49,2.17c-7.81,1.58-14.47,2.47-17.38,7.1h0a72.11,72.11,0,0,0-14.43-.48C112.05,336.94,95.76,340,95.76,340Z" style="fill:#fff"></path><path d="M95.76,340l31,22.06c2.48-.71,6.18-1.46,9-2.41,3-.84,5.7-2.58,8.64-3.76,5.77-2.52,12.49-3.63,18.53-1.38h0l-.27.1a15.49,15.49,0,0,1,6.44-6.09c5.38-2.63,11.46-2.92,17.26-3.9a41.11,41.11,0,0,0,8.54-2v.45l-35.66-15.27a50.15,50.15,0,0,1-6.37,1.94c-6.17,1.59-14.31,1.57-18.31,7.23l-.07.11-.12-.06c-12.69-1.87-26,.83-38.64,3Zm0,0c12.77-2.22,25.78-5.15,38.78-3.22l-.19.05c2.57-4,7.53-5.06,11.84-6.05a83.93,83.93,0,0,0,13.09-3.31c.15-.14,35.69,15.19,35.85,15.17l.55.23-.56.22c-8.3,3.1-17.73,2-25.79,5.82a15.14,15.14,0,0,0-6.27,5.88l-.1.18-.18-.09h0c-5.95-2.23-12.55-1.16-18.26,1.31-2.9,1.16-5.61,2.9-8.68,3.74s-6.12,1.7-9.22,2.39c-.07,0-30.82-22.31-30.89-22.33Z" style="fill:#c7c7c7"></path><path d="M162.7,350.22a19.87,19.87,0,0,1,10.37-6.4c5.19-1.42,10.86-.59,16-2,0,0,0,0,0,0-4.87,1.49-10.29.73-15.25,1.94a21.16,21.16,0,0,0-11.09,6.49S162.67,350.26,162.7,350.22Z" style="fill:#ebebeb"></path><path d="M160.88,348.65a18.37,18.37,0,0,1,9.39-6.08,26.77,26.77,0,0,1,6.41-1.07,44.36,44.36,0,0,0,8-.77s0,0,0,0a33.13,33.13,0,0,1-6.77.77,30.55,30.55,0,0,0-7.23,1,19.89,19.89,0,0,0-9.76,6.11S160.86,348.68,160.88,348.65Z" style="fill:#ebebeb"></path><path d="M128.08,359.57a54.57,54.57,0,0,0,7.06-2.18,52.85,52.85,0,0,0,6.29-3.17,21.81,21.81,0,0,1,12.91-2.57s0,0,0,0a22.29,22.29,0,0,0-7.11.47,22.53,22.53,0,0,0-6.35,2.58,43,43,0,0,1-6.14,3,52.29,52.29,0,0,1-6.64,1.93S128,359.57,128.08,359.57Z" style="fill:#ebebeb"></path><path d="M125.88,357.84a60.29,60.29,0,0,0,7.16-2.1c2.18-.82,4.21-1.84,6.28-2.81,3.65-1.71,8.12-3.62,12.57-3.15,0,0,0,.06,0,.06a19.62,19.62,0,0,0-7.15,1,48.71,48.71,0,0,0-6,2.48c-2,.93-4,1.89-6.09,2.66a47.81,47.81,0,0,1-6.71,1.88S125.83,357.85,125.88,357.84Z" style="fill:#ebebeb"></path><path d="M134.49,337a289.87,289.87,0,0,1,28.19,17.38s0,0,0,0c-4.6-3-9.19-6.07-13.93-9s-9.45-5.63-14.3-8.34C134.34,337.07,134.42,337,134.49,337Z" style="fill:#ebebeb"></path><path d="M156.66,346.12a11.22,11.22,0,0,1,3.48-3.24,22.42,22.42,0,0,1,5.32-2.73c4.18-1.39,8.86-1.44,13.21-2.37,0,0,0,0,0,0-4.13.94-8.57,1-12.6,2.26a22.22,22.22,0,0,0-5.32,2.57,13.36,13.36,0,0,0-4,3.5S156.65,346.14,156.66,346.12Z" style="fill:#ebebeb"></path><path d="M155.06,345.26c1.24-2.66,4.38-4.6,7.76-5.8,4.24-1.5,9-2,13.48-2.83,0,0,0,0,0,0-7.71,1.57-17.82,2.29-21.16,8.63C155.12,345.31,155.05,345.3,155.06,345.26Z" style="fill:#ebebeb"></path><path d="M153.18,344.39a10.83,10.83,0,0,1,5.31-5.3c3-1.51,6.75-2,10.19-2.7,0,0,0,0,0,0-3.37.84-7,1.21-10,2.69a11,11,0,0,0-5.41,5.31S153.16,344.43,153.18,344.39Z" style="fill:#ebebeb"></path><path d="M150.66,343.41c2.88-6,12.26-7.74,19.77-8.87,0,0,0,0,0,0-7.52,1.26-16.66,2.93-19.71,8.86C150.7,343.45,150.64,343.44,150.66,343.41Z" style="fill:#ebebeb"></path><path d="M163.58,331.87s0,0,0,0c-6.11,1.7-16.57,2.27-19.16,8.29,0,0,0,0,0,0C146.65,334.27,156.93,333.48,163.58,331.87Z" style="fill:#ebebeb"></path><path d="M142.43,335.23a11.44,11.44,0,0,1,3.8-1.75,80.63,80.63,0,0,1,10.35-2.39s0,0,0,0a85.14,85.14,0,0,0-9.92,2.3,13.58,13.58,0,0,0-3.89,1.65,10.68,10.68,0,0,0-2.47,2.85s0,0,0,0A8.9,8.9,0,0,1,142.43,335.23Z" style="fill:#ebebeb"></path><path d="M148.4,334.1c3.95-1.4,8.39-1.71,12.49-2.79,0,0,.05,0,0,0-6.49,1.84-16.7,1.92-18.76,8,0,0-.1,0-.09,0C142.72,336.92,145.46,335.13,148.4,334.1Z" style="fill:#ebebeb"></path><path d="M103.22,341.83A110.48,110.48,0,0,1,124.13,339s0,0,0,0a134.54,134.54,0,0,0-20.89,2.94C103.17,341.93,103.15,341.85,103.22,341.83Z" style="fill:#ebebeb"></path><path d="M106.09,343.37a150.41,150.41,0,0,1,28.24-3.27c.06,0,0,.07,0,.07a159,159,0,0,0-28.21,3.29C106,343.48,106,343.39,106.09,343.37Z" style="fill:#ebebeb"></path><path d="M108.93,345.16c2.26-.64,4.66-1.08,7-1.5s4.83-.81,7.28-1.1a113.14,113.14,0,0,1,14.61-.89s0,0,0,0a145.13,145.13,0,0,0-14.75,1q-3.58.43-7.12,1.08c-2.36.42-4.66,1-7,1.45C108.92,345.21,108.9,345.17,108.93,345.16Z" style="fill:#ebebeb"></path><path d="M117.64,352c8.77-2.38,17.38-6.15,26.93-6.14,0,0,0,0,0,0-9.6.15-18,3.83-26.9,6.16C117.6,352,117.58,352,117.64,352Z" style="fill:#ebebeb"></path><path d="M116.62,350.62c1.8-.63,3.65-1.19,5.45-1.81s3.62-1.26,5.46-1.82a40,40,0,0,1,10.95-2s0,0,0,0A44.16,44.16,0,0,0,127,347.26c-3.47,1.09-6.8,2.52-10.36,3.43C116.6,350.7,116.57,350.64,116.62,350.62Z" style="fill:#ebebeb"></path><path d="M122.83,356.08c3.34-.92,6.52-2.06,9.7-3.25a85.43,85.43,0,0,1,9.43-3.14s0,0,0,0c-3.33.93-6.5,2.1-9.67,3.29a78.53,78.53,0,0,1-9.44,3.14S122.78,356.09,122.83,356.08Z" style="fill:#ebebeb"></path><path d="M80.06,290.14c-14.54,17.43-31.7,53-27.4,59.53,4.79,7.3,25-17.12,24.83-18.43-.15-1,5.92-22.22,10.57-37.68S83.66,285.83,80.06,290.14Z" style="fill:#ad6359"></path><path d="M77.64,331.25c.49-2.26,8.82-30.28,11.13-39.11,2.08-7.93.38-11-5.62-5.66C72.1,296.25,51,325.14,47.84,339.43c-3,13.78,8.18,13.94,16.78,7C71.66,340.74,77.64,331.25,77.64,331.25Z" style="fill:#E16A73"></path><path d="M76.58,334.87q3.81-15.94,9.06-31.5-3.8,15.94-9.06,31.5Z" style="fill:#263238"></path><path d="M84,309.49a6.23,6.23,0,0,1,2-3.8,6.21,6.21,0,0,1-2,3.8Z" style="fill:#263238"></path><path d="M52.91,349.48c4.74,4.1,14.44,2.65,39.24,1.29,3.43-.19,8.61-24.76,4.94-24.74-4.63,0-22.58,1.08-23.89,1.32C62.21,329.4,49.69,346.71,52.91,349.48Z" style="fill:#ad6359"></path><path d="M93.35,327.27s9-3.68,14.35-4.15a34.36,34.36,0,0,1,16.2,2.94c5.5,2.44,17.09,12.14,14.88,16-2,3.46-13.35-7-13.35-7s13.34,8.81,10.17,12.54-15.67-9.23-15.67-9.23,13.51,9.36,9.63,12.69c-2.94,2.51-14.91-8.58-14.91-8.58s11.56,8.12,8.65,10.84c-3.21,3-14.9-6.55-14.9-6.55-8.55,5.66-14.94,4.86-19.41,3.75C87.9,350.17,93.35,327.27,93.35,327.27Z" style="fill:#ad6359"></path><path d="M121,331.64c1.6,1,3.23,2,4.75,3.07s3,2.29,4.39,3.54a32.71,32.71,0,0,1,5,5.4c-2.84-3.33-8.19-7.41-9.7-8.53s-3-2.31-4.48-3.42C120.92,331.67,121,331.62,121,331.64Z" style="fill:#263238"></path><path d="M116.87,337c2,1.34,4,2.59,6,4s3.63,2.93,5.45,4.48c.14.12,0,.15-.11,0-1.89-1.48-3.74-2.69-5.65-4.14s-3.74-3-5.69-4.36A0,0,0,1,1,116.87,337Z" style="fill:#263238"></path><path d="M112.5,341a53.14,53.14,0,0,1,8.64,6.84c.14.12,0,.15-.16,0-2.83-2.33-5-4.17-8.55-6.77C112.37,341.08,112.43,341,112.5,341Z" style="fill:#263238"></path><path d="M92.38,323.59,78.19,357.12s-24.89-2.58-28.4-7.29c-2.51-3.37,10.86-19.89,22.95-22.56Z" style="fill:#E16A73"></path><path d="M59.6,335.48c1.36-2,6.19-6.59,13.15-8.23.07,0,.1.08,0,.1-5.07,1.72-11.64,6.35-13.11,8.19C59.64,335.59,59.57,335.53,59.6,335.48Z" style="fill:#263238"></path><path d="M73.81,351.62c1.11-3.33,2.4-6.61,3.7-9.88s2.6-6.55,4-9.79c.78-1.83,1.55-3.67,2.39-5.47,0-.05.11,0,.09,0-1.11,3.33-2.39,6.61-3.66,9.89s-2.59,6.55-3.94,9.81c-.76,1.84-1.55,3.67-2.39,5.47C73.94,351.77,73.78,351.72,73.81,351.62Z" style="fill:#263238"></path><path d="M92.31,323.29a31.07,31.07,0,0,0-4.07.54c-1.35.24-2.69.49-4,.76-2.67.53-8.4,1.36-13,3.11-.05,0,.31.17.36.15,2.17-1,19.24-3.7,20.58-4.09a1.55,1.55,0,0,0,0,.31c0,.08.09.14.14.06s.19-.35.3-.52A.2.2,0,0,0,92.31,323.29Z" style="fill:#263238"></path><path d="M80.7,351.45c-.74,2-1.53,4-2.35,5.94a144.44,144.44,0,0,1-17.53-2.95,50.36,50.36,0,0,1-5.63-1.65c3.28.79,8.12,1.58,11.49,2.18l11.54,1.89L78,357c.89-1.87,1.8-3.73,2.75-5.56Z" style="fill:#263238"></path></g><g id="freepik--speech-bubbles--inject-52"><path d="M456,178.81A23.92,23.92,0,0,1,416,194l-12,1.76,6-10.35a23.94,23.94,0,1,1,46-6.55Z" style="fill:#fff"></path><path d="M456,178.81A24.15,24.15,0,0,1,451.14,191a22.06,22.06,0,0,1-4.69,4.63,24.14,24.14,0,0,1-12.22,4.75,24.69,24.69,0,0,1-3.33.07,21.74,21.74,0,0,1-3.31-.35,24.16,24.16,0,0,1-11.84-5.84l.29.08-12,1.84-.86.13.44-.76,6-10.37,0,.41a24.2,24.2,0,0,1,1.48-21.33,24.47,24.47,0,0,1,7.49-8,24.37,24.37,0,0,1,21-2.83,24.46,24.46,0,0,1,9.23,5.66A24.07,24.07,0,0,1,456,178.81Zm0,0a23.65,23.65,0,0,0-27.14-25.89,23.4,23.4,0,0,0-9.88,3.9,24.64,24.64,0,0,0-7.16,7.81,23.46,23.46,0,0,0-3,10.13,23.8,23.8,0,0,0,1.68,10.42l.09.22-.11.19-6,10.33-.43-.63,12-1.68.16,0,.12.11a23.59,23.59,0,0,0,11.46,5.9,20.77,20.77,0,0,0,3.25.4,23.79,23.79,0,0,0,3.27,0,23.36,23.36,0,0,0,6.39-1.41,21.9,21.9,0,0,0,5.77-3.11,25.48,25.48,0,0,0,2.53-2.11,24.37,24.37,0,0,0,2.18-2.47A24,24,0,0,0,456,178.81Z" style="fill:#263238"></path><path d="M419.84,176.31a2.21,2.21,0,1,0,2.2-2.21A2.21,2.21,0,0,0,419.84,176.31Z" style="fill:#263238"></path><path d="M430.41,176.31a2.2,2.2,0,1,0,2.2-2.21A2.2,2.2,0,0,0,430.41,176.31Z" style="fill:#263238"></path><path d="M441,176.31a2.21,2.21,0,1,0,2.2-2.21A2.21,2.21,0,0,0,441,176.31Z" style="fill:#263238"></path><path d="M166.27,230.49a23.92,23.92,0,0,1-40,15.14l-12,1.76,6-10.35a23.93,23.93,0,1,1,46-6.55Z" style="fill:#fff"></path><path d="M166.27,230.49a24,24,0,0,1-4.83,12.13,24.61,24.61,0,0,1-2.17,2.5,25.67,25.67,0,0,1-2.52,2.14,23.55,23.55,0,0,1-15.54,4.81,20.65,20.65,0,0,1-3.32-.34,24.14,24.14,0,0,1-11.84-5.85l.29.09-12,1.84-.87.13.44-.76,6-10.38,0,.41a24.17,24.17,0,0,1,1.47-21.33,24.46,24.46,0,0,1,7.5-8,24.34,24.34,0,0,1,21-2.83,24.46,24.46,0,0,1,9.23,5.66A24.07,24.07,0,0,1,166.27,230.49Zm0,0a23.68,23.68,0,0,0-27.14-25.9,23.6,23.6,0,0,0-9.88,3.91,24.64,24.64,0,0,0-7.16,7.81,23.56,23.56,0,0,0-1.35,20.55l.08.21-.11.2-6,10.33-.43-.63,12-1.68.16,0,.12.11a23.59,23.59,0,0,0,11.46,5.9,20.91,20.91,0,0,0,3.25.4,23.79,23.79,0,0,0,3.27,0,23.36,23.36,0,0,0,6.39-1.41,22.12,22.12,0,0,0,5.78-3.11,26.56,26.56,0,0,0,2.52-2.11,25.5,25.5,0,0,0,2.18-2.47A24,24,0,0,0,166.27,230.49Z" style="fill:#263238"></path><path d="M130.14,228a2.21,2.21,0,1,0,2.21-2.21A2.21,2.21,0,0,0,130.14,228Z" style="fill:#263238"></path><path d="M140.71,228a2.2,2.2,0,1,0,2.2-2.21A2.21,2.21,0,0,0,140.71,228Z" style="fill:#263238"></path><path d="M151.27,228a2.21,2.21,0,1,0,2.21-2.21A2.21,2.21,0,0,0,151.27,228Z" style="fill:#263238"></path></g></svg>
