<svg xmlns="http://www.w3.org/2000/svg" viewBox="0 0 500 500"><g id="freepik--background-simple--inject-366"><path d="M209,42.05C146,53.41,83.16,97.29,45.26,149.38c-32.63,44.85-43,98.8-36.75,147.74,7.22,56.79,35.88,109.7,81.86,142.49C102.46,448.24,114,456.8,128,463c57.43,25.47,113-28.51,145.83-28.92,27.64-.35,40.56,28.38,65.93,33.81C408.25,482.55,486.68,387.15,488,316.44,489.47,234.11,365.05,13.91,209,42.05Z" style="fill:#A1DBEB"></path><path d="M209,42.05C146,53.41,83.16,97.29,45.26,149.38c-32.63,44.85-43,98.8-36.75,147.74,7.22,56.79,35.88,109.7,81.86,142.49C102.46,448.24,114,456.8,128,463c57.43,25.47,113-28.51,145.83-28.92,27.64-.35,40.56,28.38,65.93,33.81C408.25,482.55,486.68,387.15,488,316.44,489.47,234.11,365.05,13.91,209,42.05Z" style="fill:#fff;opacity:0.8"></path></g><g id="freepik--Plants--inject-366"><path d="M27.24,287.51c3.05.66,9.88-.89,9.89-.89s-2.39-4.19-2.57-4.43c-2.14-2.85-8-7.08-11.72-5.77A4.71,4.71,0,0,0,20.3,283C21.49,285.51,24.64,287,27.24,287.51Z" style="fill:#A1DBEB"></path><path d="M96.92,275c.07,0,.33-4.81.31-5.11-.22-3.56-2.73-10.3-6.59-11.28a4.72,4.72,0,0,0-5.73,4.06c-.42,2.78,1.42,5.72,3.28,7.62C90.37,272.49,96.92,275,96.92,275Z" style="fill:#A1DBEB"></path><path d="M112.36,246c-4,.37-7.5,6.63-8.28,10.11-.06.3-.57,5.11-.5,5.1l.08,0c-.56,1-1.16,2-1.79,3.22-1.14,2.17-2.41,4.64-3.61,7.42A82.83,82.83,0,0,0,94.81,281a60.89,60.89,0,0,0-2.37,10.68.57.57,0,0,0,0,.13c-.21-1.15-.91-4.34-1-4.58-1.15-3.37-5.35-9.21-9.34-9.14a4.71,4.71,0,0,0-4.45,5.43c.33,2.8,2.88,5.14,5.17,6.49,2.59,1.51,9.06,2.18,9.58,2.23A81.74,81.74,0,0,0,92,303.32c0,2.17.16,4.35.31,6.53-.22-1-.42-1.87-.46-2-1.15-3.37-5.35-9.2-9.33-9.13A4.72,4.72,0,0,0,78,304.16c.33,2.79,2.89,5.14,5.18,6.48s7.83,2,9.29,2.2c.07.84.12,1.68.19,2.51.33,4,.67,8,.88,12,.08,1.38.1,2.75.13,4.12-.19-.87-.36-1.61-.4-1.72-1.14-3.37-5.34-9.2-9.33-9.14A4.72,4.72,0,0,0,79.53,326c.33,2.8,2.88,5.15,5.17,6.49s7.3,2,9,2.17c0,1.4,0,2.81-.1,4.17-.07.93-.07,1.83-.2,2.75s-.2,1.84-.31,2.74c-.26,1.73-.52,3.52-.81,5.21-.2,1.17-.41,2.28-.62,3.41-.06-1.39-.23-4.09-.27-4.32a18.25,18.25,0,0,0-4.18-8.24,5.56,5.56,0,0,0-.27-1,4.72,4.72,0,0,0-6.45-2.78c-3.57,1.77-4.62,8.88-4.1,12.4,0,.21.62,2.42,1,3.82-.36-.79-.7-1.55-1.07-2.35-.74-1.59-1.52-3.16-2.35-4.84l-1.3-2.43c-.42-.82-1-1.63-1.45-2.46-1.16-1.89-2.43-3.75-3.75-5.59,1.39-.65,6.3-3,8-5s3.42-5,2.84-7.8a4.72,4.72,0,0,0-6-3.72c-3.8,1.21-5.92,8.08-5.93,11.64,0,.22.27,2.78.45,4.18-.8-1.11-1.59-2.21-2.44-3.3-2.44-3.14-5-6.25-7.57-9.36l-2.32-2.87c.5-.23,6.39-2.91,8.35-5.17,1.75-2,3.42-5,2.84-7.8a4.72,4.72,0,0,0-6-3.72c-3.8,1.21-5.92,8.08-5.94,11.64,0,.27.41,3.94.56,4.87-1.7-2.1-3.38-4.22-4.94-6.37a82.14,82.14,0,0,1-5.81-9.08c.23-.11,6.39-2.88,8.4-5.19,1.75-2,3.42-5.05,2.84-7.8a4.72,4.72,0,0,0-6-3.72c-3.8,1.2-5.92,8.08-5.93,11.64,0,.23.3,3,.48,4.36l-.22.07a61.41,61.41,0,0,1-4.1-10c-.61-1.9-1.09-3.75-1.51-5.55,1.2-.4,6.66-2.29,8.71-4.17s3.94-4.64,3.67-7.44a4.72,4.72,0,0,0-5.51-4.35c-3.91.78-6.77,7.38-7.17,10.91,0,.2,0,2.18,0,3.62-.18-.82-.38-1.66-.54-2.45-.59-3-1-5.7-1.25-8.13-.16-1.39-.28-2.64-.38-3.82,1-1,4.85-5.11,5.78-7.67s1.37-5.94-.17-8.3A4.71,4.71,0,0,0,34,253.92c-3.11,2.49-2.61,9.67-1.34,13,.11.29,2.35,4.59,2.4,4.54l.06-.07c.07,1.14.16,2.35.28,3.68.25,2.44.55,5.2,1.08,8.18a83.65,83.65,0,0,0,2.17,9.53A61.4,61.4,0,0,0,42.57,303l.07.11c-.81-.84-3.16-3.11-3.36-3.27-2.81-2.18-9.54-4.73-12.82-2.47a4.72,4.72,0,0,0-.72,7c1.81,2.14,5.24,2.69,7.89,2.55,3-.17,8.76-3.18,9.22-3.42A83.17,83.17,0,0,0,48.64,313c1.24,1.78,2.54,3.53,3.86,5.27-.72-.7-1.37-1.33-1.47-1.41-2.82-2.17-9.55-4.72-12.83-2.47a4.72,4.72,0,0,0-.72,7c1.82,2.15,5.24,2.7,7.89,2.55s7.66-2.62,9-3.29c.51.66,1,1.33,1.54,2,2.49,3.17,5,6.33,7.34,9.49.83,1.12,1.6,2.25,2.38,3.38-.64-.63-1.19-1.15-1.28-1.22-2.82-2.18-9.54-4.73-12.83-2.47a4.71,4.71,0,0,0-.72,7c1.82,2.15,5.24,2.7,7.9,2.56s7.17-2.39,8.73-3.18c.76,1.18,1.53,2.36,2.22,3.54.45.81.94,1.56,1.35,2.41l1.25,2.45c.74,1.59,1.51,3.22,2.19,4.79.48,1.09.92,2.13,1.37,3.18-.81-1.12-2.45-3.28-2.61-3.44-2.45-2.58-8.71-6.12-12.31-4.39a4.72,4.72,0,0,0-1.76,6.8c1.47,2.4,4.77,3.46,7.41,3.72,2.92.28,8.84-1.72,9.58-2,.73,1.74,1.42,3.44,2,5.06,1.08,2.74,2,5.28,2.82,7.55l2.52-.51c-.89-2.37-1.94-5-3.15-7.93-.73-1.77-1.55-3.65-2.42-5.57a52.08,52.08,0,0,0,4.84-3.59c2.44,1.76,8.08,3.26,8.8,3.44-.35,1.86-.7,3.66-1.07,5.36-.56,2.62-1.12,5-1.66,7.21l2.71-.55c.41-1.91.84-4,1.26-6.19.37-1.89.72-3.91,1.06-6,.77,0,7,0,9.7-1.19,2.43-1.09,5.22-3.15,5.85-5.89a4.73,4.73,0,0,0-3.85-5.88c-4-.49-8.76,4.86-10.26,8.09-.09.19-.82,2.36-1.26,3.74.13-.85.27-1.67.4-2.55.27-1.73.48-3.46.72-5.33.08-.91.16-1.82.25-2.74s.09-1.9.15-2.85c.07-2.22,0-4.47,0-6.74,1.51.23,6.91,1,9.48.25s5.64-2.32,6.67-4.94a4.72,4.72,0,0,0-2.91-6.39c-3.83-1.08-9.39,3.48-11.37,6.44-.12.18-1.3,2.47-1.92,3.74-.06-1.36-.11-2.72-.22-4.1-.3-4-.73-8-1.15-12-.12-1.22-.23-2.45-.35-3.67.54.09,6.93,1.1,9.82.3,2.56-.71,5.63-2.32,6.67-4.94a4.72,4.72,0,0,0-2.92-6.39C103.48,299.43,97.92,304,96,307c-.15.22-1.84,3.51-2.23,4.37-.26-2.7-.49-5.39-.61-8.05a81.88,81.88,0,0,1,.17-10.77c.25,0,6.92,1.12,9.87.3,2.56-.7,5.63-2.32,6.67-4.94a4.72,4.72,0,0,0-2.91-6.39c-3.84-1.08-9.39,3.48-11.37,6.44-.13.19-1.42,2.7-2,3.91l-.21-.07a61.18,61.18,0,0,1,2.11-10.63c.54-1.91,1.16-3.72,1.8-5.46,1.22.33,6.82,1.77,9.56,1.33s5.85-1.69,7.17-4.18a4.72,4.72,0,0,0-2.19-6.67c-3.69-1.5-9.72,2.42-12,5.15-.12.15-1.22,1.8-2,3,.3-.78.6-1.6.9-2.34,1.14-2.79,2.35-5.28,3.44-7.47.63-1.25,1.23-2.36,1.8-3.39,1.36-.3,6.86-1.59,9-3.21s4.41-4.2,4.43-7A4.72,4.72,0,0,0,112.36,246Z" style="fill:#A1DBEB"></path><path d="M474,287.51c-3,.66-9.88-.89-9.88-.89s2.38-4.19,2.57-4.43c2.14-2.85,8-7.08,11.72-5.77A4.7,4.7,0,0,1,481,283C479.78,285.51,476.62,287,474,287.51Z" style="fill:#A1DBEB"></path><path d="M404.34,275c-.07,0-.32-4.81-.3-5.11.21-3.56,2.72-10.3,6.59-11.28a4.72,4.72,0,0,1,5.73,4.06c.41,2.78-1.43,5.72-3.28,7.62C410.89,272.49,404.35,275,404.34,275Z" style="fill:#A1DBEB"></path><path d="M388.9,246c4,.37,7.51,6.63,8.28,10.11.07.3.58,5.11.51,5.1l-.09,0c.57,1,1.17,2,1.79,3.22,1.14,2.17,2.41,4.64,3.62,7.42a84.89,84.89,0,0,1,3.45,9.15,62.75,62.75,0,0,1,2.37,10.68.57.57,0,0,0,0,.13c.21-1.15.91-4.34,1-4.58,1.15-3.37,5.35-9.21,9.34-9.14a4.72,4.72,0,0,1,4.45,5.43c-.33,2.8-2.88,5.14-5.18,6.49-2.59,1.51-9.06,2.18-9.57,2.23a83.38,83.38,0,0,1,.42,11.13c-.05,2.17-.17,4.35-.31,6.53.21-1,.41-1.87.45-2,1.15-3.37,5.35-9.2,9.34-9.13a4.71,4.71,0,0,1,4.45,5.43c-.33,2.79-2.88,5.14-5.18,6.48s-7.83,2-9.29,2.2l-.18,2.51c-.33,4-.67,8-.89,12-.07,1.38-.1,2.75-.13,4.12.19-.87.36-1.61.4-1.72,1.15-3.37,5.35-9.2,9.34-9.14a4.72,4.72,0,0,1,4.45,5.43c-.33,2.8-2.88,5.15-5.18,6.49s-7.29,2-9,2.17c0,1.4,0,2.81.1,4.17.07.93.08,1.83.2,2.75s.21,1.84.31,2.74c.26,1.73.52,3.52.82,5.21.19,1.17.4,2.28.61,3.41.06-1.39.24-4.09.28-4.32a18.23,18.23,0,0,1,4.17-8.24,5.56,5.56,0,0,1,.27-1,4.72,4.72,0,0,1,6.45-2.78c3.58,1.77,4.63,8.88,4.1,12.4,0,.21-.62,2.42-1,3.82.35-.79.69-1.55,1.07-2.35.73-1.59,1.51-3.16,2.34-4.84l1.31-2.43c.42-.82,1-1.63,1.45-2.46,1.16-1.89,2.42-3.75,3.74-5.59-1.39-.65-6.29-3-8.05-5s-3.41-5-2.83-7.8a4.71,4.71,0,0,1,5.95-3.72c3.8,1.21,5.92,8.08,5.93,11.64,0,.22-.28,2.78-.46,4.18.8-1.11,1.6-2.21,2.45-3.3,2.44-3.14,5-6.25,7.56-9.36.79-1,1.55-1.92,2.33-2.87-.5-.23-6.39-2.91-8.36-5.17-1.74-2-3.41-5-2.83-7.8a4.71,4.71,0,0,1,5.95-3.72c3.8,1.21,5.92,8.08,5.93,11.64,0,.27-.4,3.94-.55,4.87,1.7-2.1,3.37-4.22,4.94-6.37a82.14,82.14,0,0,0,5.81-9.08c-.23-.11-6.4-2.88-8.41-5.19-1.74-2-3.41-5.05-2.83-7.8a4.71,4.71,0,0,1,6-3.72c3.8,1.2,5.92,8.08,5.93,11.64,0,.23-.3,3-.48,4.36l.22.07a61.41,61.41,0,0,0,4.1-10c.61-1.9,1.08-3.75,1.51-5.55-1.2-.4-6.67-2.29-8.71-4.17s-4-4.64-3.68-7.44a4.72,4.72,0,0,1,5.51-4.35c3.91.78,6.77,7.38,7.18,10.91,0,.2,0,2.18,0,3.62.18-.82.38-1.66.54-2.45.59-3,.95-5.7,1.25-8.13.16-1.39.27-2.64.37-3.82-1-1-4.85-5.11-5.77-7.67s-1.37-5.94.16-8.3a4.72,4.72,0,0,1,6.9-1.32c3.11,2.49,2.6,9.67,1.33,13-.11.29-2.34,4.59-2.39,4.54l-.06-.07c-.07,1.14-.16,2.35-.28,3.68-.25,2.44-.55,5.2-1.08,8.18a85.84,85.84,0,0,1-2.17,9.53A61.47,61.47,0,0,1,458.69,303l-.06.11c.81-.84,3.15-3.11,3.35-3.27,2.82-2.18,9.54-4.73,12.83-2.47a4.72,4.72,0,0,1,.72,7c-1.82,2.14-5.24,2.69-7.9,2.55-3-.17-8.75-3.18-9.21-3.42a84.62,84.62,0,0,1-5.79,9.52c-1.24,1.78-2.54,3.53-3.87,5.27.73-.7,1.38-1.33,1.48-1.41,2.82-2.17,9.54-4.72,12.83-2.47a4.72,4.72,0,0,1,.72,7c-1.82,2.15-5.24,2.7-7.9,2.55s-7.66-2.62-9-3.29c-.52.66-1,1.33-1.54,2-2.49,3.17-5,6.33-7.34,9.49-.83,1.12-1.61,2.25-2.39,3.38.65-.63,1.19-1.15,1.29-1.22,2.81-2.18,9.54-4.73,12.82-2.47a4.71,4.71,0,0,1,.72,7c-1.82,2.15-5.24,2.7-7.89,2.56s-7.18-2.39-8.73-3.18c-.76,1.18-1.53,2.36-2.22,3.54-.45.81-.94,1.56-1.35,2.41l-1.25,2.45c-.74,1.59-1.51,3.22-2.2,4.79-.48,1.09-.92,2.13-1.36,3.18.81-1.12,2.45-3.28,2.61-3.44,2.45-2.58,8.71-6.12,12.3-4.39a4.72,4.72,0,0,1,1.77,6.8c-1.47,2.4-4.77,3.46-7.42,3.72-2.91.28-8.83-1.72-9.57-2-.73,1.74-1.43,3.44-2.06,5.06-1.08,2.74-2,5.28-2.82,7.55l-2.52-.51c.9-2.37,1.94-5,3.15-7.93.74-1.77,1.56-3.65,2.42-5.57a51.06,51.06,0,0,1-4.83-3.59c-2.44,1.76-8.08,3.26-8.81,3.44.35,1.86.71,3.66,1.08,5.36.56,2.62,1.12,5,1.65,7.21l-2.7-.55c-.42-1.91-.85-4-1.27-6.19-.36-1.89-.71-3.91-1.05-6-.77,0-7,0-9.71-1.19-2.42-1.09-5.21-3.15-5.84-5.89a4.72,4.72,0,0,1,3.85-5.88c3.95-.49,8.75,4.86,10.26,8.09.09.19.82,2.36,1.26,3.74-.14-.85-.28-1.67-.41-2.55-.26-1.73-.47-3.46-.71-5.33-.08-.91-.17-1.82-.25-2.74s-.1-1.9-.15-2.85c-.07-2.22,0-4.47,0-6.74-1.52.23-6.91,1-9.49.25s-5.63-2.32-6.67-4.94a4.73,4.73,0,0,1,2.91-6.39c3.84-1.08,9.4,3.48,11.37,6.44.13.18,1.3,2.47,1.93,3.74.06-1.36.11-2.72.22-4.1.3-4,.73-8,1.14-12,.13-1.22.24-2.45.36-3.67-.54.09-6.94,1.1-9.82.3-2.56-.71-5.63-2.32-6.67-4.94a4.72,4.72,0,0,1,2.91-6.39c3.84-1.09,9.4,3.47,11.37,6.44.15.22,1.84,3.51,2.23,4.37.25-2.7.48-5.39.6-8.05a83.67,83.67,0,0,0-.16-10.77c-.25,0-6.92,1.12-9.88.3-2.56-.7-5.63-2.32-6.66-4.94a4.71,4.71,0,0,1,2.91-6.39c3.83-1.08,9.39,3.48,11.37,6.44.13.19,1.41,2.7,2,3.91l.22-.07a61.18,61.18,0,0,0-2.11-10.63c-.54-1.91-1.16-3.72-1.8-5.46-1.23.33-6.83,1.77-9.57,1.33s-5.85-1.69-7.17-4.18a4.72,4.72,0,0,1,2.2-6.67c3.69-1.5,9.71,2.42,12,5.15.13.15,1.23,1.8,2,3-.3-.78-.6-1.6-.91-2.34-1.13-2.79-2.34-5.28-3.44-7.47-.63-1.25-1.22-2.36-1.79-3.39-1.37-.3-6.86-1.59-9.05-3.21s-4.41-4.2-4.44-7A4.73,4.73,0,0,1,388.9,246Z" style="fill:#A1DBEB"></path></g><g id="freepik--Circles--inject-366"><circle cx="415.91" cy="183.31" r="29.55" transform="translate(-31.24 101.81) rotate(-13.46)" style="fill:none;stroke:#263238;stroke-miterlimit:10"></circle><circle cx="415.91" cy="155.16" r="27.37" transform="translate(-24.06 96.12) rotate(-12.82)" style="fill:none;stroke:#263238;stroke-miterlimit:10"></circle><circle cx="415.91" cy="210.38" r="27.37" transform="translate(-36.3 97.49) rotate(-12.82)" style="fill:none;stroke:#263238;stroke-miterlimit:10"></circle><circle cx="388.6" cy="198.6" r="31.68" transform="translate(-26.58 64.15) rotate(-9.13)" style="fill:none;stroke:#263238;stroke-miterlimit:10"></circle><circle cx="443.77" cy="198.6" r="31.68" transform="translate(-33.47 105.76) rotate(-13.1)" style="fill:none;stroke:#263238;stroke-miterlimit:10"></circle><circle cx="444.86" cy="167.47" r="31.68" transform="translate(-28.63 125.57) rotate(-15.57)" style="fill:none;stroke:#263238;stroke-miterlimit:10"></circle><circle cx="387.51" cy="167.47" r="31.68" transform="translate(-28.35 94.86) rotate(-13.47)" style="fill:none;stroke:#263238;stroke-miterlimit:10"></circle><circle cx="391.24" cy="166.89" r="3.58" style="fill:#263238;stroke:#263238;stroke-miterlimit:10"></circle><path d="M419.59,153.76a3.58,3.58,0,1,0-3.58,3.58A3.58,3.58,0,0,0,419.59,153.76Z" style="fill:#263238;stroke:#263238;stroke-miterlimit:10"></path><circle cx="391.24" cy="198.82" r="3.58" style="fill:#263238;stroke:#263238;stroke-miterlimit:10"></circle><circle cx="439.89" cy="166.89" r="3.58" style="fill:#263238;stroke:#263238;stroke-miterlimit:10"></circle><circle cx="439.89" cy="198.82" r="3.58" style="fill:#263238;stroke:#263238;stroke-miterlimit:10"></circle><path d="M419.59,183.31a3.58,3.58,0,1,0-3.58,3.58A3.58,3.58,0,0,0,419.59,183.31Z" style="fill:#263238;stroke:#263238;stroke-miterlimit:10"></path><path d="M419.59,213.15a3.58,3.58,0,1,0-3.58,3.58A3.58,3.58,0,0,0,419.59,213.15Z" style="fill:#263238;stroke:#263238;stroke-miterlimit:10"></path><circle cx="251.46" cy="309.67" r="85.54" transform="translate(-46.37 44.3) rotate(-9.22)" style="fill:none;stroke:#263238;stroke-miterlimit:10"></circle><circle cx="251.46" cy="309.67" r="45.67" transform="translate(-145.32 268.51) rotate(-45)" style="fill:none;stroke:#263238;stroke-miterlimit:10"></circle><path d="M151.93,242.26A120.2,120.2,0,1,0,284.15,194" style="fill:none;stroke:#263238;stroke-miterlimit:10"></path><circle cx="111.72" cy="111.56" r="84.56" transform="translate(-46.17 111.67) rotate(-45)" style="fill:none;stroke:#263238;stroke-miterlimit:10"></circle><circle cx="111.72" cy="136.35" r="59.78" style="fill:none;stroke:#263238;stroke-miterlimit:10"></circle><circle cx="111.72" cy="161.14" r="34.99" transform="translate(-81.22 126.2) rotate(-45)" style="fill:none;stroke:#263238;stroke-miterlimit:10"></circle><circle cx="111.72" cy="101.52" r="23.96" style="fill:none;stroke:#263238;stroke-miterlimit:10"></circle><circle cx="111.72" cy="51.95" r="23.96" transform="translate(-9.18 28.19) rotate(-13.82)" style="fill:none;stroke:#263238;stroke-miterlimit:10"></circle><circle cx="53.06" cy="84.77" r="18.73" style="fill:none;stroke:#263238;stroke-miterlimit:10"></circle><circle cx="170.94" cy="84.77" r="18.73" style="fill:none;stroke:#263238;stroke-miterlimit:10"></circle><circle cx="83.65" cy="373.34" r="20.34" style="fill:#fff;stroke:#263238;stroke-miterlimit:10"></circle><circle cx="83.65" cy="373.34" r="17.19" style="fill:#fff;stroke:#263238;stroke-miterlimit:10"></circle><circle cx="83.65" cy="373.34" r="14.04" style="fill:#fff;stroke:#263238;stroke-miterlimit:10"></circle><circle cx="83.65" cy="373.34" r="10.89" style="fill:#fff;stroke:#263238;stroke-miterlimit:10"></circle><circle cx="83.65" cy="373.34" r="7.74" style="fill:#fff;stroke:#263238;stroke-miterlimit:10"></circle><circle cx="83.65" cy="373.34" r="4.59" style="fill:#fff;stroke:#263238;stroke-miterlimit:10"></circle><circle cx="44.01" cy="396.23" r="20.34" style="fill:#fff;stroke:#263238;stroke-miterlimit:10"></circle><circle cx="44.01" cy="396.23" r="17.19" transform="matrix(0.98, -0.19, 0.19, 0.98, -75.54, 15.91)" style="fill:#fff;stroke:#263238;stroke-miterlimit:10"></circle><path d="M51,384.07a14,14,0,1,0,5.14,19.18A14,14,0,0,0,51,384.07Z" style="fill:#fff;stroke:#263238;stroke-miterlimit:10"></path><circle cx="44.01" cy="396.23" r="10.89" transform="translate(-305.99 205.35) rotate(-55.06)" style="fill:#fff;stroke:#263238;stroke-miterlimit:10"></circle><path d="M47.88,389.53a7.74,7.74,0,1,0,2.83,10.57A7.75,7.75,0,0,0,47.88,389.53Z" style="fill:#fff;stroke:#263238;stroke-miterlimit:10"></path><path d="M46.3,392.25A4.59,4.59,0,1,0,48,398.53,4.59,4.59,0,0,0,46.3,392.25Z" style="fill:#fff;stroke:#263238;stroke-miterlimit:10"></path><circle cx="44.01" cy="442.01" r="20.34" transform="translate(-249.89 108.95) rotate(-35.74)" style="fill:#fff;stroke:#263238;stroke-miterlimit:10"></circle><circle cx="44.01" cy="442.01" r="17.19" transform="translate(-65.29 11.47) rotate(-8.56)" style="fill:#fff;stroke:#263238;stroke-miterlimit:10"></circle><circle cx="44.01" cy="442.01" r="14.04" transform="translate(-299.66 160.58) rotate(-45)" style="fill:#fff;stroke:#263238;stroke-miterlimit:10"></circle><circle cx="44.01" cy="442.01" r="10.89" style="fill:#fff;stroke:#263238;stroke-miterlimit:10"></circle><circle cx="44.01" cy="442.01" r="7.74" style="fill:#fff;stroke:#263238;stroke-miterlimit:10"></circle><path d="M41.71,438A4.59,4.59,0,1,0,48,439.71,4.59,4.59,0,0,0,41.71,438Z" style="fill:#fff;stroke:#263238;stroke-miterlimit:10"></path><circle cx="83.65" cy="464.89" r="20.34" style="fill:#fff;stroke:#263238;stroke-miterlimit:10"></circle><circle cx="83.65" cy="464.89" r="17.19" style="fill:#fff;stroke:#263238;stroke-miterlimit:10"></circle><circle cx="83.65" cy="464.89" r="14.04" style="fill:#fff;stroke:#263238;stroke-miterlimit:10"></circle><circle cx="83.65" cy="464.89" r="10.89" style="fill:#fff;stroke:#263238;stroke-miterlimit:10"></circle><circle cx="83.65" cy="464.89" r="7.74" style="fill:#fff;stroke:#263238;stroke-miterlimit:10"></circle><circle cx="83.65" cy="464.89" r="4.59" style="fill:#fff;stroke:#263238;stroke-miterlimit:10"></circle><circle cx="123.29" cy="442.01" r="20.34" transform="translate(-335.25 424.51) rotate(-72.23)" style="fill:#fff;stroke:#263238;stroke-miterlimit:10"></circle><path d="M114.7,456.9a17.19,17.19,0,1,0-6.3-23.49A17.18,17.18,0,0,0,114.7,456.9Z" style="fill:#fff;stroke:#263238;stroke-miterlimit:10"></path><circle cx="123.29" cy="442.01" r="14.04" transform="translate(-293.26 249.5) rotate(-49.61)" style="fill:#fff;stroke:#263238;stroke-miterlimit:10"></circle><circle cx="123.29" cy="442.01" r="10.89" transform="translate(-333.19 488.83) rotate(-80.27)" style="fill:#fff;stroke:#263238;stroke-miterlimit:10"></circle><circle cx="123.29" cy="442.01" r="7.74" style="fill:#fff;stroke:#263238;stroke-miterlimit:10"></circle><path d="M121,446a4.59,4.59,0,1,0-1.69-6.28A4.6,4.6,0,0,0,121,446Z" style="fill:#fff;stroke:#263238;stroke-miterlimit:10"></path><circle cx="123.29" cy="396.23" r="20.34" style="fill:#fff;stroke:#263238;stroke-miterlimit:10"></circle><circle cx="123.29" cy="396.23" r="17.19" style="fill:#fff;stroke:#263238;stroke-miterlimit:10"></circle><path d="M130.31,408.39a14,14,0,1,0-19.18-5.14A14,14,0,0,0,130.31,408.39Z" style="fill:#fff;stroke:#263238;stroke-miterlimit:10"></path><path d="M128.74,405.67a10.89,10.89,0,1,0-14.88-4A10.9,10.9,0,0,0,128.74,405.67Z" style="fill:#fff;stroke:#263238;stroke-miterlimit:10"></path><path d="M127.16,402.94a7.74,7.74,0,1,0-10.57-2.84A7.74,7.74,0,0,0,127.16,402.94Z" style="fill:#fff;stroke:#263238;stroke-miterlimit:10"></path><path d="M125.59,400.21a4.59,4.59,0,1,0-6.28-1.68A4.59,4.59,0,0,0,125.59,400.21Z" style="fill:#fff;stroke:#263238;stroke-miterlimit:10"></path><circle cx="83.65" cy="419.12" r="39.42" style="fill:#263238;stroke:#263238;stroke-miterlimit:10"></circle><circle cx="83.65" cy="419.12" r="33.31" style="fill:#fff;stroke:#263238;stroke-miterlimit:10"></circle><circle cx="83.65" cy="419.12" r="27.21" transform="translate(-92.98 29.94) rotate(-13.12)" style="fill:#263238;stroke:#263238;stroke-miterlimit:10"></circle><circle cx="83.65" cy="419.12" r="21.11" transform="translate(-93.04 29.97) rotate(-13.13)" style="fill:#fff;stroke:#263238;stroke-miterlimit:10"></circle><circle cx="83.65" cy="419.12" r="15" style="fill:#263238;stroke:#263238;stroke-miterlimit:10"></circle><circle cx="83.65" cy="419.12" r="8.9" style="fill:#fff;stroke:#263238;stroke-miterlimit:10"></circle><path d="M418.79,482a60,60,0,1,1,60-60A60.07,60.07,0,0,1,418.79,482Zm0-105.42A45.42,45.42,0,1,0,464.21,422,45.47,45.47,0,0,0,418.79,376.58Z" style="fill:#263238"></path><path d="M418.79,461.81A39.81,39.81,0,1,1,458.6,422,39.86,39.86,0,0,1,418.79,461.81Zm0-65A25.23,25.23,0,1,0,444,422,25.26,25.26,0,0,0,418.79,396.77Z" style="fill:#263238"></path><path d="M418.79,441.65A19.65,19.65,0,1,1,438.44,422,19.67,19.67,0,0,1,418.79,441.65Zm0-25.49a5.84,5.84,0,1,0,5.84,5.84A5.85,5.85,0,0,0,418.79,416.16Z" style="fill:#263238"></path></g><g id="freepik--Hand--inject-366"><path d="M261.42,134.33s4.37-3,5.27-6.76-9.62-4.85-11.46-5.45-4.28,1.65-4.77,4.21-1.2,4.7-.38,5.3S258.66,134.45,261.42,134.33Z" style="fill:#d1d1d1;stroke:#263238;stroke-miterlimit:10"></path><path d="M245.63,140s12.79,6.57,17.15,2.57.07-7.45-2.9-9.78a67.21,67.21,0,0,0-7.89-5Z" style="fill:#d1d1d1;stroke:#263238;stroke-miterlimit:10"></path><polygon points="250.59 303.8 251.47 309.67 251.92 303.63 250.59 303.8" style="fill:#263238"></polygon><path d="M253.81,244.47a196,196,0,0,1,.12,36.89L251.87,304a.68.68,0,0,1-1.28-.24L239,184l8.91-.87Z" style="fill:#263238;stroke:#263238;stroke-miterlimit:10"></path><polygon points="163.75 242.28 169.72 248.45 235.65 182.53 229.67 176.36 163.75 242.28" style="fill:#263238;stroke:#263238;stroke-miterlimit:10"></polygon><rect x="160.26" y="219.59" width="5.18" height="3.96" transform="translate(207.62 -49.74) rotate(45.68)" style="fill:#A1DBEB;stroke:#263238;stroke-miterlimit:10"></rect><rect x="158.53" y="215.22" width="3.96" height="7.92" transform="translate(205.2 -48.79) rotate(45.68)" style="fill:#A1DBEB;stroke:#263238;stroke-miterlimit:10"></rect><polygon points="165.32 240.24 145.78 252.93 158.94 233.7 196.43 197.09 202.82 203.63 165.32 240.24" style="fill:#A1DBEB;stroke:#263238;stroke-miterlimit:10"></polygon><polygon points="165.32 240.24 158.94 233.7 145.78 252.93 165.32 240.24" style="fill:#fff;stroke:#263238;stroke-miterlimit:10"></polygon><polygon points="151.77 249.04 149.82 247.04 145.78 252.93 151.77 249.04" style="fill:#263238;stroke:#263238;stroke-miterlimit:10"></polygon><path d="M168.93,221.39a4.57,4.57,0,0,0-6.41,6.26l8.08,12.55,10.68-10.43Zm2.57,14.28-6.25-8.5c-.91-1.24-1-2.66-.25-3.4s2.18-.6,3.39.34l8.35,6.45Z" style="fill:#fff;stroke:#263238;stroke-miterlimit:10"></path><path d="M248,169.43l-9.85-3.23,10-23.09a2.85,2.85,0,0,1,3.49-1.57h0a2.85,2.85,0,0,1,1.89,3.34Z" style="fill:#A1DBEB;stroke:#263238;stroke-miterlimit:10"></path><path d="M234.3,162.4l3,0a21.2,21.2,0,0,1,12.89,4.45l2.43,1.88-3,9.2a37.3,37.3,0,0,1-5.28,10.34l-2.52,3.47-1.09,4H240a17.31,17.31,0,0,1-10.26-3.38l-1.33-1,1.4-4.27.22-5a37.5,37.5,0,0,1,1.16-7.74Z" style="fill:#A1DBEB;stroke:#263238;stroke-miterlimit:10"></path><path d="M240.41,171.49a2.68,2.68,0,1,1-1.71-3.39A2.67,2.67,0,0,1,240.41,171.49Z" style="fill:#263238;stroke:#263238;stroke-miterlimit:10"></path><path d="M248.24,174.05a2.69,2.69,0,1,1-1.72-3.39A2.68,2.68,0,0,1,248.24,174.05Z" style="fill:#263238;stroke:#263238;stroke-miterlimit:10"></path><path d="M405.21,42.57s-16.46,11.92-29.92,13.62-59.57,3.58-77.3,8-50.62,17.71-62.52,26-11.05,13-10.08,23.52,8.18,21.69,8.18,21.69-6.45,16.57-4.29,19.31,9.59.77,14.26-5.18S256,124.05,264.68,114s20.24-12,25.24-12.78,13.89,3.19,14.14,11.76a20.83,20.83,0,0,1-10.31,19c-6.31,3.71-34.43,10.79-40,17.45s5.06,12.52,12.81,11.67,14-5.28,25.36-10a129.81,129.81,0,0,1,37.6-9.07c11.83-.88,38.56-2.65,50.64-14.65s22.51-26.24,32.38-31.49,22.39-10.32,22.39-10.32Z" style="fill:#d1d1d1;stroke:#263238;stroke-miterlimit:10"></path><path d="M412.53,95.9l.89-.47-22.75-36L389,62.78l12.38,42C405.21,101,408.91,97.82,412.53,95.9Z" style="fill:#263238"></path><path d="M264.18,77.18s-27.74,21.47-30.87,28.93.26,29.28.26,29.28,13-29.35,19.29-37.14,23.87-21,23.87-21" style="fill:none;stroke:#263238;stroke-miterlimit:10"></path><polygon points="384.42 53.04 414.97 113.27 440.81 99.73 414.98 37.62 384.42 53.04" style="fill:#fff;stroke:#263238;stroke-miterlimit:10"></polygon><path d="M422.39,100.37a3,3,0,1,1-1.94-3.83A3,3,0,0,1,422.39,100.37Z" style="fill:#fff;stroke:#263238;stroke-miterlimit:10"></path><path d="M496,81.77s-41.55,21-44.7,23.41a9.06,9.06,0,0,1-10.3.36C438.18,103.62,406.72,38,406.72,38s-1-4.07,0-7.14S448.07,3,448.07,3" style="fill:#fff;stroke:#263238;stroke-miterlimit:10"></path></g></svg>